<svg version="1.1" xmlns="http://www.w3.org/2000/svg" xmlns:xlink="http://www.w3.org/1999/xlink" width="1200" height="400" style="width: 1200px; height: 400px;"><defs><clipPath id="tfHuopIgNdVE"><path fill="none" stroke="none" d=" M 93 5 L 1170 5 L 1170 351 L 93 351 L 93 5 Z"/></clipPath><clipPath id="KMeSSVWGoLny"><path fill="none" stroke="none" d=" M 93 5 L 1170 5 L 1170 351 L 93 351 L 93 5 Z"/></clipPath></defs><g><g transform="scale(1,1) translate(0.5,0.5)"><rect fill="#FFFFFF" stroke="none" x="0" y="0" width="1200" height="400"/><rect fill="#ffffff" stroke="none" x="0" y="0" width="1200" height="400"/><rect fill="#FFFFFF" stroke="none" x="93" y="5" width="1077" height="346"/><rect fill="#ffffff" stroke="none" x="93" y="5" width="1077" height="346"/><g><rect fill="none" stroke="#e5e5e5" x="93" y="5" width="1077" height="346" stroke-miterlimit="10"/></g><g clip-path="url(#tfHuopIgNdVE)"><g><g><path fill="none" stroke="#e5e5e5" paint-order="fill stroke markers" d=" M 171 351 L 171 5" stroke-miterlimit="10"/><path fill="none" stroke="#e5e5e5" paint-order="fill stroke markers" d=" M 366 351 L 366 5" stroke-miterlimit="10"/><path fill="none" stroke="#e5e5e5" paint-order="fill stroke markers" d=" M 561 351 L 561 5" stroke-miterlimit="10"/><path fill="none" stroke="#e5e5e5" paint-order="fill stroke markers" d=" M 756 351 L 756 5" stroke-miterlimit="10"/><path fill="none" stroke="#e5e5e5" paint-order="fill stroke markers" d=" M 951 351 L 951 5" stroke-miterlimit="10"/><path fill="none" stroke="#e5e5e5" paint-order="fill stroke markers" d=" M 1146 351 L 1146 5" stroke-miterlimit="10"/></g><g><path fill="none" stroke="#e5e5e5" paint-order="fill stroke markers" d=" M 93 335 L 1170 335" stroke-miterlimit="10"/><path fill="none" stroke="#e5e5e5" paint-order="fill stroke markers" d=" M 93 264 L 1170 264" stroke-miterlimit="10"/><path fill="none" stroke="#e5e5e5" paint-order="fill stroke markers" d=" M 93 193 L 1170 193" stroke-miterlimit="10"/><path fill="none" stroke="#e5e5e5" paint-order="fill stroke markers" d=" M 93 122 L 1170 122" stroke-miterlimit="10"/><path fill="none" stroke="#e5e5e5" paint-order="fill stroke markers" d=" M 93 50 L 1170 50" stroke-miterlimit="10"/></g><path fill="none" stroke="black" paint-order="fill stroke markers" d=" M 141.95454545454533 335.27272727272725 L 141.95454545454533 335.27272727272725" stroke-miterlimit="10"/><path fill="none" stroke="black" paint-order="fill stroke markers" d=" M 243.49604898913435 329.0791352096384 L 243.49604898913435 327.46791937403776" stroke-miterlimit="10"/><path fill="none" stroke="black" paint-order="fill stroke markers" d=" M 341.0015384953921 168.48122283810733 L 341.0015384953921 158.69520559387334" stroke-miterlimit="10"/><path fill="none" stroke="black" paint-order="fill stroke markers" d=" M 438.50702800164987 267.6582222504491 L 438.50702800164987 260.3007602952624" stroke-miterlimit="10"/><path fill="none" stroke="black" paint-order="fill stroke markers" d=" M 536.0125175079078 292.4183472948695 L 536.0125175079078 285.758576206598" stroke-miterlimit="10"/><path fill="none" stroke="black" paint-order="fill stroke markers" d=" M 633.5180070141655 291.5696776309319 L 633.5180070141655 284.77801930746284" stroke-miterlimit="10"/><path fill="none" stroke="black" paint-order="fill stroke markers" d=" M 731.0234965204232 288.21703584426643 L 731.0234965204232 281.05715769083446" stroke-miterlimit="10"/><path fill="none" stroke="black" paint-order="fill stroke markers" d=" M 828.5289860266812 284.7413301329274 L 828.5289860266812 277.43741384036355" stroke-miterlimit="10"/><path fill="none" stroke="black" paint-order="fill stroke markers" d=" M 926.0344755329389 264.95567242149934 L 926.0344755329389 256.6603002829557" stroke-miterlimit="10"/><path fill="none" stroke="black" paint-order="fill stroke markers" d=" M 1023.5399650391967 138.7555401735297 L 1023.5399650391967 125.25870398881028" stroke-miterlimit="10"/><path fill="none" stroke="black" paint-order="fill stroke markers" d=" M 1121.0454545454545 28.27636363636367 L 1121.0454545454545 13.178181818181827" stroke-miterlimit="10"/><g transform="translate(141.95454545454533,335.27272727272725) rotate(180,0,0)"><path fill="none" stroke="black" paint-order="fill stroke markers" d=" M 5 0 L -5 0" stroke-miterlimit="10"/></g><g transform="translate(243.49604898913435,329.0791352096384) rotate(180,0,0)"><path fill="none" stroke="black" paint-order="fill stroke markers" d=" M 5 0 L -5 0" stroke-miterlimit="10"/></g><g transform="translate(341.0015384953921,168.48122283810733) rotate(180,0,0)"><path fill="none" stroke="black" paint-order="fill stroke markers" d=" M 5 0 L -5 0" stroke-miterlimit="10"/></g><g transform="translate(438.50702800164987,267.6582222504491) rotate(180,0,0)"><path fill="none" stroke="black" paint-order="fill stroke markers" d=" M 5 0 L -5 0" stroke-miterlimit="10"/></g><g transform="translate(536.0125175079078,292.4183472948695) rotate(180,0,0)"><path fill="none" stroke="black" paint-order="fill stroke markers" d=" M 5 0 L -5 0" stroke-miterlimit="10"/></g><g transform="translate(633.5180070141655,291.5696776309319) rotate(180,0,0)"><path fill="none" stroke="black" paint-order="fill stroke markers" d=" M 5 0 L -5 0" stroke-miterlimit="10"/></g><g transform="translate(731.0234965204232,288.21703584426643) rotate(180,0,0)"><path fill="none" stroke="black" paint-order="fill stroke markers" d=" M 5 0 L -5 0" stroke-miterlimit="10"/></g><g transform="translate(828.5289860266812,284.7413301329274) rotate(180,0,0)"><path fill="none" stroke="black" paint-order="fill stroke markers" d=" M 5 0 L -5 0" stroke-miterlimit="10"/></g><g transform="translate(926.0344755329389,264.95567242149934) rotate(180,0,0)"><path fill="none" stroke="black" paint-order="fill stroke markers" d=" M 5 0 L -5 0" stroke-miterlimit="10"/></g><g transform="translate(1023.5399650391967,138.7555401735297) rotate(180,0,0)"><path fill="none" stroke="black" paint-order="fill stroke markers" d=" M 5 0 L -5 0" stroke-miterlimit="10"/></g><g transform="translate(1121.0454545454545,28.27636363636367) rotate(180,0,0)"><path fill="none" stroke="black" paint-order="fill stroke markers" d=" M 5 0 L -5 0" stroke-miterlimit="10"/></g><g transform="translate(141.95454545454533,335.27272727272725) rotate(0,0,0)"><path fill="none" stroke="black" paint-order="fill stroke markers" d=" M 5 0 L -5 0" stroke-miterlimit="10"/></g><g transform="translate(243.49604898913435,327.46791937403776) rotate(0,0,0)"><path fill="none" stroke="black" paint-order="fill stroke markers" d=" M 5 0 L -5 0" stroke-miterlimit="10"/></g><g transform="translate(341.0015384953921,158.69520559387334) rotate(0,0,0)"><path fill="none" stroke="black" paint-order="fill stroke markers" d=" M 5 0 L -5 0" stroke-miterlimit="10"/></g><g transform="translate(438.50702800164987,260.3007602952624) rotate(0,0,0)"><path fill="none" stroke="black" paint-order="fill stroke markers" d=" M 5 0 L -5 0" stroke-miterlimit="10"/></g><g transform="translate(536.0125175079078,285.758576206598) rotate(0,0,0)"><path fill="none" stroke="black" paint-order="fill stroke markers" d=" M 5 0 L -5 0" stroke-miterlimit="10"/></g><g transform="translate(633.5180070141655,284.77801930746284) rotate(0,0,0)"><path fill="none" stroke="black" paint-order="fill stroke markers" d=" M 5 0 L -5 0" stroke-miterlimit="10"/></g><g transform="translate(731.0234965204232,281.05715769083446) rotate(0,0,0)"><path fill="none" stroke="black" paint-order="fill stroke markers" d=" M 5 0 L -5 0" stroke-miterlimit="10"/></g><g transform="translate(828.5289860266812,277.43741384036355) rotate(0,0,0)"><path fill="none" stroke="black" paint-order="fill stroke markers" d=" M 5 0 L -5 0" stroke-miterlimit="10"/></g><g transform="translate(926.0344755329389,256.6603002829557) rotate(0,0,0)"><path fill="none" stroke="black" paint-order="fill stroke markers" d=" M 5 0 L -5 0" stroke-miterlimit="10"/></g><g transform="translate(1023.5399650391967,125.25870398881028) rotate(0,0,0)"><path fill="none" stroke="black" paint-order="fill stroke markers" d=" M 5 0 L -5 0" stroke-miterlimit="10"/></g><g transform="translate(1121.0454545454545,13.178181818181827) rotate(0,0,0)"><path fill="none" stroke="black" paint-order="fill stroke markers" d=" M 5 0 L -5 0" stroke-miterlimit="10"/></g><path fill="none" stroke="black" paint-order="fill stroke markers" d=" M 141.95454545454533 335.27272727272725 L 141.95454545454533 335.27272727272725" stroke-miterlimit="10"/><path fill="none" stroke="black" paint-order="fill stroke markers" d=" M 243.49604898913435 333.242909962116 L 243.49604898913435 331.93123653726485" stroke-miterlimit="10"/><path fill="none" stroke="black" paint-order="fill stroke markers" d=" M 341.0015384953921 277.8975726836967 L 341.0015384953921 269.6835556958115" stroke-miterlimit="10"/><path fill="none" stroke="black" paint-order="fill stroke markers" d=" M 438.50702800164987 317.707097810409 L 438.50702800164987 313.2315259293673" stroke-miterlimit="10"/><path fill="none" stroke="black" paint-order="fill stroke markers" d=" M 536.0125175079078 324.41056148571914 L 536.0125175079078 320.2510236757056" stroke-miterlimit="10"/><path fill="none" stroke="black" paint-order="fill stroke markers" d=" M 633.5180070141655 322.4168672242582 L 633.5180070141655 317.86882493807514" stroke-miterlimit="10"/><path fill="none" stroke="black" paint-order="fill stroke markers" d=" M 731.0234965204232 320.86045197537663 L 731.0234965204232 316.0389764294205" stroke-miterlimit="10"/><path fill="none" stroke="black" paint-order="fill stroke markers" d=" M 828.5289860266812 319.09531765767053 L 828.5289860266812 310.48948461520087" stroke-miterlimit="10"/><path fill="none" stroke="black" paint-order="fill stroke markers" d=" M 926.0344755329389 321.01622461146104 L 926.0344755329389 316.0396770534057" stroke-miterlimit="10"/><path fill="none" stroke="black" paint-order="fill stroke markers" d=" M 1023.5399650391967 281.5955743693218 L 1023.5399650391967 270.05043859144905" stroke-miterlimit="10"/><path fill="none" stroke="black" paint-order="fill stroke markers" d=" M 1121.0454545454545 232.85999502722882 L 1121.0454545454545 220.84715283709414" stroke-miterlimit="10"/><g transform="translate(141.95454545454533,335.27272727272725) rotate(180,0,0)"><path fill="none" stroke="black" paint-order="fill stroke markers" d=" M 5 0 L -5 0" stroke-miterlimit="10"/></g><g transform="translate(243.49604898913435,333.242909962116) rotate(180,0,0)"><path fill="none" stroke="black" paint-order="fill stroke markers" d=" M 5 0 L -5 0" stroke-miterlimit="10"/></g><g transform="translate(341.0015384953921,277.8975726836967) rotate(180,0,0)"><path fill="none" stroke="black" paint-order="fill stroke markers" d=" M 5 0 L -5 0" stroke-miterlimit="10"/></g><g transform="translate(438.50702800164987,317.707097810409) rotate(180,0,0)"><path fill="none" stroke="black" paint-order="fill stroke markers" d=" M 5 0 L -5 0" stroke-miterlimit="10"/></g><g transform="translate(536.0125175079078,324.41056148571914) rotate(180,0,0)"><path fill="none" stroke="black" paint-order="fill stroke markers" d=" M 5 0 L -5 0" stroke-miterlimit="10"/></g><g transform="translate(633.5180070141655,322.4168672242582) rotate(180,0,0)"><path fill="none" stroke="black" paint-order="fill stroke markers" d=" M 5 0 L -5 0" stroke-miterlimit="10"/></g><g transform="translate(731.0234965204232,320.86045197537663) rotate(180,0,0)"><path fill="none" stroke="black" paint-order="fill stroke markers" d=" M 5 0 L -5 0" stroke-miterlimit="10"/></g><g transform="translate(828.5289860266812,319.09531765767053) rotate(180,0,0)"><path fill="none" stroke="black" paint-order="fill stroke markers" d=" M 5 0 L -5 0" stroke-miterlimit="10"/></g><g transform="translate(926.0344755329389,321.01622461146104) rotate(180,0,0)"><path fill="none" stroke="black" paint-order="fill stroke markers" d=" M 5 0 L -5 0" stroke-miterlimit="10"/></g><g transform="translate(1023.5399650391967,281.5955743693218) rotate(180,0,0)"><path fill="none" stroke="black" paint-order="fill stroke markers" d=" M 5 0 L -5 0" stroke-miterlimit="10"/></g><g transform="translate(1121.0454545454545,232.85999502722882) rotate(180,0,0)"><path fill="none" stroke="black" paint-order="fill stroke markers" d=" M 5 0 L -5 0" stroke-miterlimit="10"/></g><g transform="translate(141.95454545454533,335.27272727272725) rotate(0,0,0)"><path fill="none" stroke="black" paint-order="fill stroke markers" d=" M 5 0 L -5 0" stroke-miterlimit="10"/></g><g transform="translate(243.49604898913435,331.93123653726485) rotate(0,0,0)"><path fill="none" stroke="black" paint-order="fill stroke markers" d=" M 5 0 L -5 0" stroke-miterlimit="10"/></g><g transform="translate(341.0015384953921,269.6835556958115) rotate(0,0,0)"><path fill="none" stroke="black" paint-order="fill stroke markers" d=" M 5 0 L -5 0" stroke-miterlimit="10"/></g><g transform="translate(438.50702800164987,313.2315259293673) rotate(0,0,0)"><path fill="none" stroke="black" paint-order="fill stroke markers" d=" M 5 0 L -5 0" stroke-miterlimit="10"/></g><g transform="translate(536.0125175079078,320.2510236757056) rotate(0,0,0)"><path fill="none" stroke="black" paint-order="fill stroke markers" d=" M 5 0 L -5 0" stroke-miterlimit="10"/></g><g transform="translate(633.5180070141655,317.86882493807514) rotate(0,0,0)"><path fill="none" stroke="black" paint-order="fill stroke markers" d=" M 5 0 L -5 0" stroke-miterlimit="10"/></g><g transform="translate(731.0234965204232,316.0389764294205) rotate(0,0,0)"><path fill="none" stroke="black" paint-order="fill stroke markers" d=" M 5 0 L -5 0" stroke-miterlimit="10"/></g><g transform="translate(828.5289860266812,310.48948461520087) rotate(0,0,0)"><path fill="none" stroke="black" paint-order="fill stroke markers" d=" M 5 0 L -5 0" stroke-miterlimit="10"/></g><g transform="translate(926.0344755329389,316.0396770534057) rotate(0,0,0)"><path fill="none" stroke="black" paint-order="fill stroke markers" d=" M 5 0 L -5 0" stroke-miterlimit="10"/></g><g transform="translate(1023.5399650391967,270.05043859144905) rotate(0,0,0)"><path fill="none" stroke="black" paint-order="fill stroke markers" d=" M 5 0 L -5 0" stroke-miterlimit="10"/></g><g transform="translate(1121.0454545454545,220.84715283709414) rotate(0,0,0)"><path fill="none" stroke="black" paint-order="fill stroke markers" d=" M 5 0 L -5 0" stroke-miterlimit="10"/></g><g><path fill="none" stroke="none"/><path fill="none" stroke="#5e4fa2" paint-order="fill stroke markers" d=" M 141.95454545454533 335.27272727272725 L 243.49604898913435 328.2735272918381 L 341.0015384953921 163.58821421599035 L 438.50702800164987 263.97949127285574 L 536.0125175079078 289.08846175073376 L 633.5180070141655 288.17384846919737 L 731.0234965204232 284.6370967675505 L 828.5289860266812 281.08937198664546 L 926.0344755329389 260.80798635222754 L 1023.5399650391967 132.00712208116997 L 1121.0454545454545 20.727272727272748" stroke-miterlimit="10"/></g><g><path fill="none" stroke="none"/><path fill="none" stroke="#3288bd" paint-order="fill stroke markers" d=" M 141.95454545454533 335.27272727272725 L 243.49604898913435 332.58707324969043 L 341.0015384953921 273.7905641897541 L 438.50702800164987 315.46931186988814 L 536.0125175079078 322.3307925807124 L 633.5180070141655 320.1428460811667 L 731.0234965204232 318.4497142023986 L 828.5289860266812 314.79240113643567 L 926.0344755329389 318.52795083243336 L 1023.5399650391967 275.8230064803854 L 1121.0454545454545 226.85357393216145" stroke-miterlimit="10"/></g></g></g><g clip-path="url(#KMeSSVWGoLny)"><g><g/><g><path fill="#ffffff" stroke="#e5e5e5" paint-order="fill stroke markers" d=" M 1063.28125 15 L 1160 15 L 1160 78 L 1063.28125 78 L 1063.28125 15 Z" fill-opacity="0.95" stroke-miterlimit="10" stroke-opacity="0.5"/><text fill="#444444" stroke="none" font-family="helvetica" font-size="10pt" font-style="normal" font-weight="normal" text-decoration="normal" x="1098.28125" y="35" text-anchor="start" dominant-baseline="central">Tally 12</text><g><path fill="none" stroke="#5e4fa2" paint-order="fill stroke markers" d=" M 1073.28125 35 L 1093.28125 35" stroke-miterlimit="10"/></g><text fill="#444444" stroke="none" font-family="helvetica" font-size="10pt" font-style="normal" font-weight="normal" text-decoration="normal" x="1098.28125" y="58" text-anchor="start" dominant-baseline="central">Tally 22</text><g><path fill="none" stroke="#3288bd" paint-order="fill stroke markers" d=" M 1073.28125 58 L 1093.28125 58" stroke-miterlimit="10"/></g></g></g></g><g><g fill="#444444"><path fill="none" stroke="black" paint-order="fill stroke markers" d=" M 93 351 L 1170 351" stroke-miterlimit="10"/><path fill="none" stroke="black" paint-order="fill stroke markers" d=" M 171 357 L 171 349" stroke-miterlimit="10"/><path fill="none" stroke="black" paint-order="fill stroke markers" d=" M 366 357 L 366 349" stroke-miterlimit="10"/><path fill="none" stroke="black" paint-order="fill stroke markers" d=" M 561 357 L 561 349" stroke-miterlimit="10"/><path fill="none" stroke="black" paint-order="fill stroke markers" d=" M 756 357 L 756 349" stroke-miterlimit="10"/><path fill="none" stroke="black" paint-order="fill stroke markers" d=" M 951 357 L 951 349" stroke-miterlimit="10"/><path fill="none" stroke="black" paint-order="fill stroke markers" d=" M 1146 357 L 1146 349" stroke-miterlimit="10"/><path fill="none" stroke="black" paint-order="fill stroke markers" d=" M 171 355 L 171 351" stroke-miterlimit="10"/><path fill="none" stroke="black" paint-order="fill stroke markers" d=" M 269 355 L 269 351" stroke-miterlimit="10"/><path fill="none" stroke="black" paint-order="fill stroke markers" d=" M 298 355 L 298 351" stroke-miterlimit="10"/><path fill="none" stroke="black" paint-order="fill stroke markers" d=" M 315 355 L 315 351" stroke-miterlimit="10"/><path fill="none" stroke="black" paint-order="fill stroke markers" d=" M 328 355 L 328 351" stroke-miterlimit="10"/><path fill="none" stroke="black" paint-order="fill stroke markers" d=" M 337 355 L 337 351" stroke-miterlimit="10"/><path fill="none" stroke="black" paint-order="fill stroke markers" d=" M 345 355 L 345 351" stroke-miterlimit="10"/><path fill="none" stroke="black" paint-order="fill stroke markers" d=" M 351 355 L 351 351" stroke-miterlimit="10"/><path fill="none" stroke="black" paint-order="fill stroke markers" d=" M 357 355 L 357 351" stroke-miterlimit="10"/><path fill="none" stroke="black" paint-order="fill stroke markers" d=" M 362 355 L 362 351" stroke-miterlimit="10"/><path fill="none" stroke="black" paint-order="fill stroke markers" d=" M 366 355 L 366 351" stroke-miterlimit="10"/><path fill="none" stroke="black" paint-order="fill stroke markers" d=" M 464 355 L 464 351" stroke-miterlimit="10"/><path fill="none" stroke="black" paint-order="fill stroke markers" d=" M 493 355 L 493 351" stroke-miterlimit="10"/><path fill="none" stroke="black" paint-order="fill stroke markers" d=" M 510 355 L 510 351" stroke-miterlimit="10"/><path fill="none" stroke="black" paint-order="fill stroke markers" d=" M 523 355 L 523 351" stroke-miterlimit="10"/><path fill="none" stroke="black" paint-order="fill stroke markers" d=" M 532 355 L 532 351" stroke-miterlimit="10"/><path fill="none" stroke="black" paint-order="fill stroke markers" d=" M 540 355 L 540 351" stroke-miterlimit="10"/><path fill="none" stroke="black" paint-order="fill stroke markers" d=" M 546 355 L 546 351" stroke-miterlimit="10"/><path fill="none" stroke="black" paint-order="fill stroke markers" d=" M 552 355 L 552 351" stroke-miterlimit="10"/><path fill="none" stroke="black" paint-order="fill stroke markers" d=" M 557 355 L 557 351" stroke-miterlimit="10"/><path fill="none" stroke="black" paint-order="fill stroke markers" d=" M 561 355 L 561 351" stroke-miterlimit="10"/><path fill="none" stroke="black" paint-order="fill stroke markers" d=" M 659 355 L 659 351" stroke-miterlimit="10"/><path fill="none" stroke="black" paint-order="fill stroke markers" d=" M 688 355 L 688 351" stroke-miterlimit="10"/><path fill="none" stroke="black" paint-order="fill stroke markers" d=" M 705 355 L 705 351" stroke-miterlimit="10"/><path fill="none" stroke="black" paint-order="fill stroke markers" d=" M 718 355 L 718 351" stroke-miterlimit="10"/><path fill="none" stroke="black" paint-order="fill stroke markers" d=" M 727 355 L 727 351" stroke-miterlimit="10"/><path fill="none" stroke="black" paint-order="fill stroke markers" d=" M 735 355 L 735 351" stroke-miterlimit="10"/><path fill="none" stroke="black" paint-order="fill stroke markers" d=" M 741 355 L 741 351" stroke-miterlimit="10"/><path fill="none" stroke="black" paint-order="fill stroke markers" d=" M 747 355 L 747 351" stroke-miterlimit="10"/><path fill="none" stroke="black" paint-order="fill stroke markers" d=" M 752 355 L 752 351" stroke-miterlimit="10"/><path fill="none" stroke="black" paint-order="fill stroke markers" d=" M 756 355 L 756 351" stroke-miterlimit="10"/><path fill="none" stroke="black" paint-order="fill stroke markers" d=" M 854 355 L 854 351" stroke-miterlimit="10"/><path fill="none" stroke="black" paint-order="fill stroke markers" d=" M 883 355 L 883 351" stroke-miterlimit="10"/><path fill="none" stroke="black" paint-order="fill stroke markers" d=" M 900 355 L 900 351" stroke-miterlimit="10"/><path fill="none" stroke="black" paint-order="fill stroke markers" d=" M 913 355 L 913 351" stroke-miterlimit="10"/><path fill="none" stroke="black" paint-order="fill stroke markers" d=" M 922 355 L 922 351" stroke-miterlimit="10"/><path fill="none" stroke="black" paint-order="fill stroke markers" d=" M 930 355 L 930 351" stroke-miterlimit="10"/><path fill="none" stroke="black" paint-order="fill stroke markers" d=" M 936 355 L 936 351" stroke-miterlimit="10"/><path fill="none" stroke="black" paint-order="fill stroke markers" d=" M 942 355 L 942 351" stroke-miterlimit="10"/><path fill="none" stroke="black" paint-order="fill stroke markers" d=" M 947 355 L 947 351" stroke-miterlimit="10"/><path fill="none" stroke="black" paint-order="fill stroke markers" d=" M 951 355 L 951 351" stroke-miterlimit="10"/><path fill="none" stroke="black" paint-order="fill stroke markers" d=" M 1049 355 L 1049 351" stroke-miterlimit="10"/><path fill="none" stroke="black" paint-order="fill stroke markers" d=" M 1078 355 L 1078 351" stroke-miterlimit="10"/><path fill="none" stroke="black" paint-order="fill stroke markers" d=" M 1095 355 L 1095 351" stroke-miterlimit="10"/><path fill="none" stroke="black" paint-order="fill stroke markers" d=" M 1108 355 L 1108 351" stroke-miterlimit="10"/><path fill="none" stroke="black" paint-order="fill stroke markers" d=" M 1117 355 L 1117 351" stroke-miterlimit="10"/><path fill="none" stroke="black" paint-order="fill stroke markers" d=" M 1125 355 L 1125 351" stroke-miterlimit="10"/><path fill="none" stroke="black" paint-order="fill stroke markers" d=" M 1131 355 L 1131 351" stroke-miterlimit="10"/><path fill="none" stroke="black" paint-order="fill stroke markers" d=" M 1137 355 L 1137 351" stroke-miterlimit="10"/><path fill="none" stroke="black" paint-order="fill stroke markers" d=" M 1142 355 L 1142 351" stroke-miterlimit="10"/><path fill="" stroke="black" paint-order="fill stroke markers" d=" M 1146 355 L 1146 351" stroke-miterlimit="10"/><g transform="translate(171,362) rotate(0,0,0)"><text fill="" stroke="none" font-family="helvetica" font-size="8pt" font-style="normal" font-weight="normal" text-decoration="normal" x="0" y="0" text-anchor="middle" dominant-baseline="hanging">10^-9</text><g transform="rotate(0,0,0) translate(-171,-362) translate(366,362) rotate(0,0,0)"><text fill="" stroke="none" font-family="helvetica" font-size="8pt" font-style="normal" font-weight="normal" text-decoration="normal" x="0" y="0" text-anchor="middle" dominant-baseline="hanging">10^-7</text><g transform="rotate(0,0,0) translate(-366,-362) translate(561,362) rotate(0,0,0)"><text fill="" stroke="none" font-family="helvetica" font-size="8pt" font-style="normal" font-weight="normal" text-decoration="normal" x="0" y="0" text-anchor="middle" dominant-baseline="hanging">10^-5</text><g transform="rotate(0,0,0) translate(-561,-362) translate(756,362) rotate(0,0,0)"><text fill="" stroke="none" font-family="helvetica" font-size="8pt" font-style="normal" font-weight="normal" text-decoration="normal" x="0" y="0" text-anchor="middle" dominant-baseline="hanging">10^-3</text><g transform="rotate(0,0,0) translate(-756,-362) translate(951,362) rotate(0,0,0)"><text fill="" stroke="none" font-family="helvetica" font-size="8pt" font-style="normal" font-weight="normal" text-decoration="normal" x="0" y="0" text-anchor="middle" dominant-baseline="hanging">10^-1</text><g transform="rotate(0,0,0) translate(-951,-362) translate(1146,362) rotate(0,0,0)"><text fill="" stroke="none" font-family="helvetica" font-size="8pt" font-style="normal" font-weight="normal" text-decoration="normal" x="0" y="0" text-anchor="middle" dominant-baseline="hanging">10^1</text><g transform="rotate(0,0,0) translate(-1146,-362) translate(632,382) rotate(0,0,0)"><text fill="" stroke="none" font-family="helvetica" font-size="10pt" font-style="italic" font-weight="normal" text-decoration="normal" x="0" y="0" text-anchor="middle" dominant-baseline="hanging">Energy /MeV</text><g transform="rotate(0,0,0) translate(-632,-382)"/></g></g></g></g></g></g></g></g><g fill="#444444"><path fill="none" stroke="black" paint-order="fill stroke markers" d=" M 93 351 L 93 5" stroke-miterlimit="10"/><path fill="none" stroke="black" paint-order="fill stroke markers" d=" M 87 335 L 95 335" stroke-miterlimit="10"/><path fill="none" stroke="black" paint-order="fill stroke markers" d=" M 87 264 L 95 264" stroke-miterlimit="10"/><path fill="none" stroke="black" paint-order="fill stroke markers" d=" M 87 193 L 95 193" stroke-miterlimit="10"/><path fill="none" stroke="black" paint-order="fill stroke markers" d=" M 87 122 L 95 122" stroke-miterlimit="10"/><path fill="none" stroke="black" paint-order="fill stroke markers" d=" M 87 50 L 95 50" stroke-miterlimit="10"/><path fill="none" stroke="black" paint-order="fill stroke markers" d=" M 89 350 L 93 350" stroke-miterlimit="10"/><path fill="none" stroke="black" paint-order="fill stroke markers" d=" M 89 335 L 93 335" stroke-miterlimit="10"/><path fill="none" stroke="black" paint-order="fill stroke markers" d=" M 89 321 L 93 321" stroke-miterlimit="10"/><path fill="none" stroke="black" paint-order="fill stroke markers" d=" M 89 307 L 93 307" stroke-miterlimit="10"/><path fill="none" stroke="black" paint-order="fill stroke markers" d=" M 89 293 L 93 293" stroke-miterlimit="10"/><path fill="none" stroke="black" paint-order="fill stroke markers" d=" M 89 278 L 93 278" stroke-miterlimit="10"/><path fill="none" stroke="black" paint-order="fill stroke markers" d=" M 89 264 L 93 264" stroke-miterlimit="10"/><path fill="none" stroke="black" paint-order="fill stroke markers" d=" M 89 250 L 93 250" stroke-miterlimit="10"/><path fill="none" stroke="black" paint-order="fill stroke markers" d=" M 89 236 L 93 236" stroke-miterlimit="10"/><path fill="none" stroke="black" paint-order="fill stroke markers" d=" M 89 221 L 93 221" stroke-miterlimit="10"/><path fill="none" stroke="black" paint-order="fill stroke markers" d=" M 89 207 L 93 207" stroke-miterlimit="10"/><path fill="none" stroke="black" paint-order="fill stroke markers" d=" M 89 193 L 93 193" stroke-miterlimit="10"/><path fill="none" stroke="black" paint-order="fill stroke markers" d=" M 89 179 L 93 179" stroke-miterlimit="10"/><path fill="none" stroke="black" paint-order="fill stroke markers" d=" M 89 164 L 93 164" stroke-miterlimit="10"/><path fill="none" stroke="black" paint-order="fill stroke markers" d=" M 89 150 L 93 150" stroke-miterlimit="10"/><path fill="none" stroke="black" paint-order="fill stroke markers" d=" M 89 136 L 93 136" stroke-miterlimit="10"/><path fill="none" stroke="black" paint-order="fill stroke markers" d=" M 89 122 L 93 122" stroke-miterlimit="10"/><path fill="none" stroke="black" paint-order="fill stroke markers" d=" M 89 107 L 93 107" stroke-miterlimit="10"/><path fill="none" stroke="black" paint-order="fill stroke markers" d=" M 89 93 L 93 93" stroke-miterlimit="10"/><path fill="none" stroke="black" paint-order="fill stroke markers" d=" M 89 79 L 93 79" stroke-miterlimit="10"/><path fill="none" stroke="black" paint-order="fill stroke markers" d=" M 89 65 L 93 65" stroke-miterlimit="10"/><path fill="none" stroke="black" paint-order="fill stroke markers" d=" M 89 50 L 93 50" stroke-miterlimit="10"/><path fill="none" stroke="black" paint-order="fill stroke markers" d=" M 89 36 L 93 36" stroke-miterlimit="10"/><path fill="none" stroke="black" paint-order="fill stroke markers" d=" M 89 22 L 93 22" stroke-miterlimit="10"/><path fill="" stroke="black" paint-order="fill stroke markers" d=" M 89 8 L 93 8" stroke-miterlimit="10"/><g transform="translate(82,335) rotate(0,0,0)"><text fill="" stroke="none" font-family="helvetica" font-size="8pt" font-style="normal" font-weight="normal" text-decoration="normal" x="0" y="0" text-anchor="end" dominant-baseline="central">0.000e+0</text><g transform="rotate(0,0,0) translate(-82,-335) translate(82,264) rotate(0,0,0)"><text fill="" stroke="none" font-family="helvetica" font-size="8pt" font-style="normal" font-weight="normal" text-decoration="normal" x="0" y="0" text-anchor="end" dominant-baseline="central">5.000e-5</text><g transform="rotate(0,0,0) translate(-82,-264) translate(82,193) rotate(0,0,0)"><text fill="" stroke="none" font-family="helvetica" font-size="8pt" font-style="normal" font-weight="normal" text-decoration="normal" x="0" y="0" text-anchor="end" dominant-baseline="central">1.000e-4</text><g transform="rotate(0,0,0) translate(-82,-193) translate(82,122) rotate(0,0,0)"><text fill="" stroke="none" font-family="helvetica" font-size="8pt" font-style="normal" font-weight="normal" text-decoration="normal" x="0" y="0" text-anchor="end" dominant-baseline="central">1.500e-4</text><g transform="rotate(0,0,0) translate(-82,-122) translate(82,50) rotate(0,0,0)"><text fill="" stroke="none" font-family="helvetica" font-size="8pt" font-style="normal" font-weight="normal" text-decoration="normal" x="0" y="0" text-anchor="end" dominant-baseline="central">2.000e-4</text><g transform="rotate(0,0,0) translate(-82,-50) translate(17,178) rotate(-90,0,0)"><text fill="" stroke="none" font-family="helvetica" font-size="10pt" font-style="italic" font-weight="normal" text-decoration="normal" x="0" y="0" text-anchor="middle" dominant-baseline="alphabetic">Flux (1/cm^2)</text><g transform="rotate(90,0,0) translate(-17,-178)"/></g></g></g></g></g></g></g></g></g></g></svg>