<svg version="1.1" xmlns="http://www.w3.org/2000/svg" xmlns:xlink="http://www.w3.org/1999/xlink" width="1200" height="400" style="width: 1200px; height: 400px;"><defs><clipPath id="amvwxxBNAFyn"><path fill="none" stroke="none" d=" M 61 5 L 1170 5 L 1170 351 L 61 351 L 61 5 Z"/></clipPath><clipPath id="uaqlNokiQhzz"><path fill="none" stroke="none" d=" M 61 5 L 1170 5 L 1170 351 L 61 351 L 61 5 Z"/></clipPath></defs><g><g transform="scale(1,1) translate(0.5,0.5)"><rect fill="#FFFFFF" stroke="none" x="0" y="0" width="1200" height="400"/><rect fill="#ffffff" stroke="none" x="0" y="0" width="1200" height="400"/><rect fill="#FFFFFF" stroke="none" x="61" y="5" width="1109" height="346"/><rect fill="#ffffff" stroke="none" x="61" y="5" width="1109" height="346"/><g><rect fill="none" stroke="#e5e5e5" x="61" y="5" width="1109" height="346" stroke-miterlimit="10"/></g><g clip-path="url(#amvwxxBNAFyn)"><g><g><path fill="none" stroke="#e5e5e5" paint-order="fill stroke markers" d=" M 142 351 L 142 5" stroke-miterlimit="10"/><path fill="none" stroke="#e5e5e5" paint-order="fill stroke markers" d=" M 342 351 L 342 5" stroke-miterlimit="10"/><path fill="none" stroke="#e5e5e5" paint-order="fill stroke markers" d=" M 543 351 L 543 5" stroke-miterlimit="10"/><path fill="none" stroke="#e5e5e5" paint-order="fill stroke markers" d=" M 744 351 L 744 5" stroke-miterlimit="10"/><path fill="none" stroke="#e5e5e5" paint-order="fill stroke markers" d=" M 945 351 L 945 5" stroke-miterlimit="10"/><path fill="none" stroke="#e5e5e5" paint-order="fill stroke markers" d=" M 1146 351 L 1146 5" stroke-miterlimit="10"/></g><g><path fill="none" stroke="#e5e5e5" paint-order="fill stroke markers" d=" M 61 335 L 1170 335" stroke-miterlimit="10"/><path fill="none" stroke="#e5e5e5" paint-order="fill stroke markers" d=" M 61 269 L 1170 269" stroke-miterlimit="10"/><path fill="none" stroke="#e5e5e5" paint-order="fill stroke markers" d=" M 61 202 L 1170 202" stroke-miterlimit="10"/><path fill="none" stroke="#e5e5e5" paint-order="fill stroke markers" d=" M 61 136 L 1170 136" stroke-miterlimit="10"/><path fill="none" stroke="#e5e5e5" paint-order="fill stroke markers" d=" M 61 69 L 1170 69" stroke-miterlimit="10"/></g><path fill="none" stroke="black" paint-order="fill stroke markers" d=" M 111.40909090909076 335.35568472295785 L 111.40909090909076 335.18976982249666" stroke-miterlimit="10"/><path fill="none" stroke="black" paint-order="fill stroke markers" d=" M 215.9676121902971 326.05021343160314 L 215.9676121902971 323.76879183999046" stroke-miterlimit="10"/><path fill="none" stroke="black" paint-order="fill stroke markers" d=" M 316.3702007348095 114.03748927234156 L 316.3702007348095 101.8933175651892" stroke-miterlimit="10"/><path fill="none" stroke="black" paint-order="fill stroke markers" d=" M 416.7727892793219 269.65237767510473 L 416.7727892793219 261.48387988036586" stroke-miterlimit="10"/><path fill="none" stroke="black" paint-order="fill stroke markers" d=" M 517.1753778238344 295.84610482812974 L 517.1753778238344 288.60397251369943" stroke-miterlimit="10"/><path fill="none" stroke="black" paint-order="fill stroke markers" d=" M 617.5779663683469 292.09986235838153 L 617.5779663683469 285.37325064468905" stroke-miterlimit="10"/><path fill="none" stroke="black" paint-order="fill stroke markers" d=" M 717.9805549128592 288.7793302526852 L 717.9805549128592 281.6880253074613" stroke-miterlimit="10"/><path fill="none" stroke="black" paint-order="fill stroke markers" d=" M 818.3831434573718 285.33691285803343 L 818.3831434573718 278.1029492883975" stroke-miterlimit="10"/><path fill="none" stroke="black" paint-order="fill stroke markers" d=" M 918.7857320018842 265.7407508330829 L 918.7857320018842 257.5248270131601" stroke-miterlimit="10"/><path fill="none" stroke="black" paint-order="fill stroke markers" d=" M 1019.1883205463967 140.74929110147224 L 1019.1883205463967 127.38171987601783" stroke-miterlimit="10"/><path fill="none" stroke="black" paint-order="fill stroke markers" d=" M 1119.590909090909 31.32822077966324 L 1119.590909090909 16.374640691175046" stroke-miterlimit="10"/><g transform="translate(111.40909090909076,335.35568472295785) rotate(180,0,0)"><path fill="none" stroke="black" paint-order="fill stroke markers" d=" M 5 0 L -5 0" stroke-miterlimit="10"/></g><g transform="translate(215.9676121902971,326.05021343160314) rotate(180,0,0)"><path fill="none" stroke="black" paint-order="fill stroke markers" d=" M 5 0 L -5 0" stroke-miterlimit="10"/></g><g transform="translate(316.3702007348095,114.03748927234156) rotate(180,0,0)"><path fill="none" stroke="black" paint-order="fill stroke markers" d=" M 5 0 L -5 0" stroke-miterlimit="10"/></g><g transform="translate(416.7727892793219,269.65237767510473) rotate(180,0,0)"><path fill="none" stroke="black" paint-order="fill stroke markers" d=" M 5 0 L -5 0" stroke-miterlimit="10"/></g><g transform="translate(517.1753778238344,295.84610482812974) rotate(180,0,0)"><path fill="none" stroke="black" paint-order="fill stroke markers" d=" M 5 0 L -5 0" stroke-miterlimit="10"/></g><g transform="translate(617.5779663683469,292.09986235838153) rotate(180,0,0)"><path fill="none" stroke="black" paint-order="fill stroke markers" d=" M 5 0 L -5 0" stroke-miterlimit="10"/></g><g transform="translate(717.9805549128592,288.7793302526852) rotate(180,0,0)"><path fill="none" stroke="black" paint-order="fill stroke markers" d=" M 5 0 L -5 0" stroke-miterlimit="10"/></g><g transform="translate(818.3831434573718,285.33691285803343) rotate(180,0,0)"><path fill="none" stroke="black" paint-order="fill stroke markers" d=" M 5 0 L -5 0" stroke-miterlimit="10"/></g><g transform="translate(918.7857320018842,265.7407508330829) rotate(180,0,0)"><path fill="none" stroke="black" paint-order="fill stroke markers" d=" M 5 0 L -5 0" stroke-miterlimit="10"/></g><g transform="translate(1019.1883205463967,140.74929110147224) rotate(180,0,0)"><path fill="none" stroke="black" paint-order="fill stroke markers" d=" M 5 0 L -5 0" stroke-miterlimit="10"/></g><g transform="translate(1119.590909090909,31.32822077966324) rotate(180,0,0)"><path fill="none" stroke="black" paint-order="fill stroke markers" d=" M 5 0 L -5 0" stroke-miterlimit="10"/></g><g transform="translate(111.40909090909076,335.18976982249666) rotate(0,0,0)"><path fill="none" stroke="black" paint-order="fill stroke markers" d=" M 5 0 L -5 0" stroke-miterlimit="10"/></g><g transform="translate(215.9676121902971,323.76879183999046) rotate(0,0,0)"><path fill="none" stroke="black" paint-order="fill stroke markers" d=" M 5 0 L -5 0" stroke-miterlimit="10"/></g><g transform="translate(316.3702007348095,101.8933175651892) rotate(0,0,0)"><path fill="none" stroke="black" paint-order="fill stroke markers" d=" M 5 0 L -5 0" stroke-miterlimit="10"/></g><g transform="translate(416.7727892793219,261.48387988036586) rotate(0,0,0)"><path fill="none" stroke="black" paint-order="fill stroke markers" d=" M 5 0 L -5 0" stroke-miterlimit="10"/></g><g transform="translate(517.1753778238344,288.60397251369943) rotate(0,0,0)"><path fill="none" stroke="black" paint-order="fill stroke markers" d=" M 5 0 L -5 0" stroke-miterlimit="10"/></g><g transform="translate(617.5779663683469,285.37325064468905) rotate(0,0,0)"><path fill="none" stroke="black" paint-order="fill stroke markers" d=" M 5 0 L -5 0" stroke-miterlimit="10"/></g><g transform="translate(717.9805549128592,281.6880253074613) rotate(0,0,0)"><path fill="none" stroke="black" paint-order="fill stroke markers" d=" M 5 0 L -5 0" stroke-miterlimit="10"/></g><g transform="translate(818.3831434573718,278.1029492883975) rotate(0,0,0)"><path fill="none" stroke="black" paint-order="fill stroke markers" d=" M 5 0 L -5 0" stroke-miterlimit="10"/></g><g transform="translate(918.7857320018842,257.5248270131601) rotate(0,0,0)"><path fill="none" stroke="black" paint-order="fill stroke markers" d=" M 5 0 L -5 0" stroke-miterlimit="10"/></g><g transform="translate(1019.1883205463967,127.38171987601783) rotate(0,0,0)"><path fill="none" stroke="black" paint-order="fill stroke markers" d=" M 5 0 L -5 0" stroke-miterlimit="10"/></g><g transform="translate(1119.590909090909,16.374640691175046) rotate(0,0,0)"><path fill="none" stroke="black" paint-order="fill stroke markers" d=" M 5 0 L -5 0" stroke-miterlimit="10"/></g><path fill="none" stroke="black" paint-order="fill stroke markers" d=" M 111.40909090909076 335.3843492455887 L 111.40909090909076 334.9791458932645" stroke-miterlimit="10"/><path fill="none" stroke="black" paint-order="fill stroke markers" d=" M 215.9676121902971 323.139827028913 L 215.9676121902971 311.2680037067315" stroke-miterlimit="10"/><path fill="none" stroke="black" paint-order="fill stroke markers" d=" M 316.3702007348095 111.88030556772921 L 316.3702007348095 82.3847287557486" stroke-miterlimit="10"/><path fill="none" stroke="black" paint-order="fill stroke markers" d=" M 416.7727892793219 275.59423557957007 L 416.7727892793219 261.565270361845" stroke-miterlimit="10"/><path fill="none" stroke="black" paint-order="fill stroke markers" d=" M 517.1753778238344 304.54343638218955 L 517.1753778238344 292.9602357082297" stroke-miterlimit="10"/><path fill="none" stroke="black" paint-order="fill stroke markers" d=" M 617.5779663683469 298.07371533689957 L 617.5779663683469 284.87426076122347" stroke-miterlimit="10"/><path fill="none" stroke="black" paint-order="fill stroke markers" d=" M 717.9805549128592 293.5566437958293 L 717.9805549128592 279.5636236231889" stroke-miterlimit="10"/><path fill="none" stroke="black" paint-order="fill stroke markers" d=" M 818.3831434573718 288.4338219792182 L 818.3831434573718 263.45773442721304" stroke-miterlimit="10"/><path fill="none" stroke="black" paint-order="fill stroke markers" d=" M 918.7857320018842 294.00873146448964 L 918.7857320018842 279.56565699356804" stroke-miterlimit="10"/><path fill="none" stroke="black" paint-order="fill stroke markers" d=" M 1019.1883205463967 179.60102602263638 L 1019.1883205463967 146.09441247750698" stroke-miterlimit="10"/><path fill="none" stroke="black" paint-order="fill stroke markers" d=" M 1119.590909090909 38.1592747663874 L 1119.590909090909 3.295270688158041" stroke-miterlimit="10"/><g transform="translate(111.40909090909076,335.3843492455887) rotate(180,0,0)"><path fill="none" stroke="black" paint-order="fill stroke markers" d=" M 5 0 L -5 0" stroke-miterlimit="10"/></g><g transform="translate(215.9676121902971,323.139827028913) rotate(180,0,0)"><path fill="none" stroke="black" paint-order="fill stroke markers" d=" M 5 0 L -5 0" stroke-miterlimit="10"/></g><g transform="translate(316.3702007348095,111.88030556772921) rotate(180,0,0)"><path fill="none" stroke="black" paint-order="fill stroke markers" d=" M 5 0 L -5 0" stroke-miterlimit="10"/></g><g transform="translate(416.7727892793219,275.59423557957007) rotate(180,0,0)"><path fill="none" stroke="black" paint-order="fill stroke markers" d=" M 5 0 L -5 0" stroke-miterlimit="10"/></g><g transform="translate(517.1753778238344,304.54343638218955) rotate(180,0,0)"><path fill="none" stroke="black" paint-order="fill stroke markers" d=" M 5 0 L -5 0" stroke-miterlimit="10"/></g><g transform="translate(617.5779663683469,298.07371533689957) rotate(180,0,0)"><path fill="none" stroke="black" paint-order="fill stroke markers" d=" M 5 0 L -5 0" stroke-miterlimit="10"/></g><g transform="translate(717.9805549128592,293.5566437958293) rotate(180,0,0)"><path fill="none" stroke="black" paint-order="fill stroke markers" d=" M 5 0 L -5 0" stroke-miterlimit="10"/></g><g transform="translate(818.3831434573718,288.4338219792182) rotate(180,0,0)"><path fill="none" stroke="black" paint-order="fill stroke markers" d=" M 5 0 L -5 0" stroke-miterlimit="10"/></g><g transform="translate(918.7857320018842,294.00873146448964) rotate(180,0,0)"><path fill="none" stroke="black" paint-order="fill stroke markers" d=" M 5 0 L -5 0" stroke-miterlimit="10"/></g><g transform="translate(1019.1883205463967,179.60102602263638) rotate(180,0,0)"><path fill="none" stroke="black" paint-order="fill stroke markers" d=" M 5 0 L -5 0" stroke-miterlimit="10"/></g><g transform="translate(1119.590909090909,38.1592747663874) rotate(180,0,0)"><path fill="none" stroke="black" paint-order="fill stroke markers" d=" M 5 0 L -5 0" stroke-miterlimit="10"/></g><g transform="translate(111.40909090909076,334.9791458932645) rotate(0,0,0)"><path fill="none" stroke="black" paint-order="fill stroke markers" d=" M 5 0 L -5 0" stroke-miterlimit="10"/></g><g transform="translate(215.9676121902971,311.2680037067315) rotate(0,0,0)"><path fill="none" stroke="black" paint-order="fill stroke markers" d=" M 5 0 L -5 0" stroke-miterlimit="10"/></g><g transform="translate(316.3702007348095,82.3847287557486) rotate(0,0,0)"><path fill="none" stroke="black" paint-order="fill stroke markers" d=" M 5 0 L -5 0" stroke-miterlimit="10"/></g><g transform="translate(416.7727892793219,261.565270361845) rotate(0,0,0)"><path fill="none" stroke="black" paint-order="fill stroke markers" d=" M 5 0 L -5 0" stroke-miterlimit="10"/></g><g transform="translate(517.1753778238344,292.9602357082297) rotate(0,0,0)"><path fill="none" stroke="black" paint-order="fill stroke markers" d=" M 5 0 L -5 0" stroke-miterlimit="10"/></g><g transform="translate(617.5779663683469,284.87426076122347) rotate(0,0,0)"><path fill="none" stroke="black" paint-order="fill stroke markers" d=" M 5 0 L -5 0" stroke-miterlimit="10"/></g><g transform="translate(717.9805549128592,279.5636236231889) rotate(0,0,0)"><path fill="none" stroke="black" paint-order="fill stroke markers" d=" M 5 0 L -5 0" stroke-miterlimit="10"/></g><g transform="translate(818.3831434573718,263.45773442721304) rotate(0,0,0)"><path fill="none" stroke="black" paint-order="fill stroke markers" d=" M 5 0 L -5 0" stroke-miterlimit="10"/></g><g transform="translate(918.7857320018842,279.56565699356804) rotate(0,0,0)"><path fill="none" stroke="black" paint-order="fill stroke markers" d=" M 5 0 L -5 0" stroke-miterlimit="10"/></g><g transform="translate(1019.1883205463967,146.09441247750698) rotate(0,0,0)"><path fill="none" stroke="black" paint-order="fill stroke markers" d=" M 5 0 L -5 0" stroke-miterlimit="10"/></g><g transform="translate(1119.590909090909,3.295270688158041) rotate(0,0,0)"><path fill="none" stroke="black" paint-order="fill stroke markers" d=" M 5 0 L -5 0" stroke-miterlimit="10"/></g><g><path fill="none" stroke="none"/><path fill="none" stroke="#5e4fa2" paint-order="fill stroke markers" d=" M 111.40909090909076 335.27272727272725 L 215.9676121902971 324.9095026357968 L 316.3702007348095 107.96540341876536 L 416.7727892793219 265.5681287777353 L 517.1753778238344 292.22503867091456 L 617.5779663683469 288.7365565015353 L 717.9805549128592 285.23367778007326 L 818.3831434573718 281.71993107321543 L 918.7857320018842 261.63278892312155 L 1019.1883205463967 134.06550548874503 L 1119.590909090909 23.851430735419115" stroke-miterlimit="10"/></g><g><path fill="none" stroke="none"/><path fill="none" stroke="#3288bd" paint-order="fill stroke markers" d=" M 111.40909090909076 335.1817475694266 L 215.9676121902971 317.2039153678223 L 316.3702007348095 97.13251716173889 L 416.7727892793219 268.57975297070755 L 517.1753778238344 298.75183604520964 L 617.5779663683469 291.4739880490615 L 717.9805549128592 286.5601337095091 L 818.3831434573718 275.94577820321564 L 918.7857320018842 286.78719422902884 L 1019.1883205463967 162.8477192500717 L 1119.590909090909 20.727272727272748" stroke-miterlimit="10"/></g></g></g><g clip-path="url(#uaqlNokiQhzz)"><g><g/><g><path fill="#ffffff" stroke="#e5e5e5" paint-order="fill stroke markers" d=" M 1063.28125 15 L 1160 15 L 1160 78 L 1063.28125 78 L 1063.28125 15 Z" fill-opacity="0.95" stroke-miterlimit="10" stroke-opacity="0.5"/><text fill="#444444" stroke="none" font-family="helvetica" font-size="10pt" font-style="normal" font-weight="normal" text-decoration="normal" x="1098.28125" y="35" text-anchor="start" dominant-baseline="central">Tally 12</text><g><path fill="none" stroke="#5e4fa2" paint-order="fill stroke markers" d=" M 1073.28125 35 L 1093.28125 35" stroke-miterlimit="10"/></g><text fill="#444444" stroke="none" font-family="helvetica" font-size="10pt" font-style="normal" font-weight="normal" text-decoration="normal" x="1098.28125" y="58" text-anchor="start" dominant-baseline="central">Tally 22</text><g><path fill="none" stroke="#3288bd" paint-order="fill stroke markers" d=" M 1073.28125 58 L 1093.28125 58" stroke-miterlimit="10"/></g></g></g></g><g><g fill="#444444"><path fill="none" stroke="black" paint-order="fill stroke markers" d=" M 61 351 L 1170 351" stroke-miterlimit="10"/><path fill="none" stroke="black" paint-order="fill stroke markers" d=" M 142 357 L 142 349" stroke-miterlimit="10"/><path fill="none" stroke="black" paint-order="fill stroke markers" d=" M 342 357 L 342 349" stroke-miterlimit="10"/><path fill="none" stroke="black" paint-order="fill stroke markers" d=" M 543 357 L 543 349" stroke-miterlimit="10"/><path fill="none" stroke="black" paint-order="fill stroke markers" d=" M 744 357 L 744 349" stroke-miterlimit="10"/><path fill="none" stroke="black" paint-order="fill stroke markers" d=" M 945 357 L 945 349" stroke-miterlimit="10"/><path fill="none" stroke="black" paint-order="fill stroke markers" d=" M 1146 357 L 1146 349" stroke-miterlimit="10"/><path fill="none" stroke="black" paint-order="fill stroke markers" d=" M 142 355 L 142 351" stroke-miterlimit="10"/><path fill="none" stroke="black" paint-order="fill stroke markers" d=" M 242 355 L 242 351" stroke-miterlimit="10"/><path fill="none" stroke="black" paint-order="fill stroke markers" d=" M 272 355 L 272 351" stroke-miterlimit="10"/><path fill="none" stroke="black" paint-order="fill stroke markers" d=" M 290 355 L 290 351" stroke-miterlimit="10"/><path fill="none" stroke="black" paint-order="fill stroke markers" d=" M 302 355 L 302 351" stroke-miterlimit="10"/><path fill="none" stroke="black" paint-order="fill stroke markers" d=" M 312 355 L 312 351" stroke-miterlimit="10"/><path fill="none" stroke="black" paint-order="fill stroke markers" d=" M 320 355 L 320 351" stroke-miterlimit="10"/><path fill="none" stroke="black" paint-order="fill stroke markers" d=" M 327 355 L 327 351" stroke-miterlimit="10"/><path fill="none" stroke="black" paint-order="fill stroke markers" d=" M 333 355 L 333 351" stroke-miterlimit="10"/><path fill="none" stroke="black" paint-order="fill stroke markers" d=" M 338 355 L 338 351" stroke-miterlimit="10"/><path fill="none" stroke="black" paint-order="fill stroke markers" d=" M 342 355 L 342 351" stroke-miterlimit="10"/><path fill="none" stroke="black" paint-order="fill stroke markers" d=" M 443 355 L 443 351" stroke-miterlimit="10"/><path fill="none" stroke="black" paint-order="fill stroke markers" d=" M 473 355 L 473 351" stroke-miterlimit="10"/><path fill="none" stroke="black" paint-order="fill stroke markers" d=" M 491 355 L 491 351" stroke-miterlimit="10"/><path fill="none" stroke="black" paint-order="fill stroke markers" d=" M 503 355 L 503 351" stroke-miterlimit="10"/><path fill="none" stroke="black" paint-order="fill stroke markers" d=" M 513 355 L 513 351" stroke-miterlimit="10"/><path fill="none" stroke="black" paint-order="fill stroke markers" d=" M 521 355 L 521 351" stroke-miterlimit="10"/><path fill="none" stroke="black" paint-order="fill stroke markers" d=" M 528 355 L 528 351" stroke-miterlimit="10"/><path fill="none" stroke="black" paint-order="fill stroke markers" d=" M 534 355 L 534 351" stroke-miterlimit="10"/><path fill="none" stroke="black" paint-order="fill stroke markers" d=" M 539 355 L 539 351" stroke-miterlimit="10"/><path fill="none" stroke="black" paint-order="fill stroke markers" d=" M 543 355 L 543 351" stroke-miterlimit="10"/><path fill="none" stroke="black" paint-order="fill stroke markers" d=" M 644 355 L 644 351" stroke-miterlimit="10"/><path fill="none" stroke="black" paint-order="fill stroke markers" d=" M 674 355 L 674 351" stroke-miterlimit="10"/><path fill="none" stroke="black" paint-order="fill stroke markers" d=" M 692 355 L 692 351" stroke-miterlimit="10"/><path fill="none" stroke="black" paint-order="fill stroke markers" d=" M 704 355 L 704 351" stroke-miterlimit="10"/><path fill="none" stroke="black" paint-order="fill stroke markers" d=" M 714 355 L 714 351" stroke-miterlimit="10"/><path fill="none" stroke="black" paint-order="fill stroke markers" d=" M 722 355 L 722 351" stroke-miterlimit="10"/><path fill="none" stroke="black" paint-order="fill stroke markers" d=" M 728 355 L 728 351" stroke-miterlimit="10"/><path fill="none" stroke="black" paint-order="fill stroke markers" d=" M 734 355 L 734 351" stroke-miterlimit="10"/><path fill="none" stroke="black" paint-order="fill stroke markers" d=" M 739 355 L 739 351" stroke-miterlimit="10"/><path fill="none" stroke="black" paint-order="fill stroke markers" d=" M 744 355 L 744 351" stroke-miterlimit="10"/><path fill="none" stroke="black" paint-order="fill stroke markers" d=" M 844 355 L 844 351" stroke-miterlimit="10"/><path fill="none" stroke="black" paint-order="fill stroke markers" d=" M 875 355 L 875 351" stroke-miterlimit="10"/><path fill="none" stroke="black" paint-order="fill stroke markers" d=" M 892 355 L 892 351" stroke-miterlimit="10"/><path fill="none" stroke="black" paint-order="fill stroke markers" d=" M 905 355 L 905 351" stroke-miterlimit="10"/><path fill="none" stroke="black" paint-order="fill stroke markers" d=" M 915 355 L 915 351" stroke-miterlimit="10"/><path fill="none" stroke="black" paint-order="fill stroke markers" d=" M 923 355 L 923 351" stroke-miterlimit="10"/><path fill="none" stroke="black" paint-order="fill stroke markers" d=" M 929 355 L 929 351" stroke-miterlimit="10"/><path fill="none" stroke="black" paint-order="fill stroke markers" d=" M 935 355 L 935 351" stroke-miterlimit="10"/><path fill="none" stroke="black" paint-order="fill stroke markers" d=" M 940 355 L 940 351" stroke-miterlimit="10"/><path fill="none" stroke="black" paint-order="fill stroke markers" d=" M 945 355 L 945 351" stroke-miterlimit="10"/><path fill="none" stroke="black" paint-order="fill stroke markers" d=" M 1045 355 L 1045 351" stroke-miterlimit="10"/><path fill="none" stroke="black" paint-order="fill stroke markers" d=" M 1075 355 L 1075 351" stroke-miterlimit="10"/><path fill="none" stroke="black" paint-order="fill stroke markers" d=" M 1093 355 L 1093 351" stroke-miterlimit="10"/><path fill="none" stroke="black" paint-order="fill stroke markers" d=" M 1106 355 L 1106 351" stroke-miterlimit="10"/><path fill="none" stroke="black" paint-order="fill stroke markers" d=" M 1115 355 L 1115 351" stroke-miterlimit="10"/><path fill="none" stroke="black" paint-order="fill stroke markers" d=" M 1123 355 L 1123 351" stroke-miterlimit="10"/><path fill="none" stroke="black" paint-order="fill stroke markers" d=" M 1130 355 L 1130 351" stroke-miterlimit="10"/><path fill="none" stroke="black" paint-order="fill stroke markers" d=" M 1136 355 L 1136 351" stroke-miterlimit="10"/><path fill="none" stroke="black" paint-order="fill stroke markers" d=" M 1141 355 L 1141 351" stroke-miterlimit="10"/><path fill="" stroke="black" paint-order="fill stroke markers" d=" M 1146 355 L 1146 351" stroke-miterlimit="10"/><g transform="translate(142,362) rotate(0,0,0)"><text fill="" stroke="none" font-family="helvetica" font-size="8pt" font-style="normal" font-weight="normal" text-decoration="normal" x="0" y="0" text-anchor="middle" dominant-baseline="hanging">10^-9</text><g transform="rotate(0,0,0) translate(-142,-362) translate(342,362) rotate(0,0,0)"><text fill="" stroke="none" font-family="helvetica" font-size="8pt" font-style="normal" font-weight="normal" text-decoration="normal" x="0" y="0" text-anchor="middle" dominant-baseline="hanging">10^-7</text><g transform="rotate(0,0,0) translate(-342,-362) translate(543,362) rotate(0,0,0)"><text fill="" stroke="none" font-family="helvetica" font-size="8pt" font-style="normal" font-weight="normal" text-decoration="normal" x="0" y="0" text-anchor="middle" dominant-baseline="hanging">10^-5</text><g transform="rotate(0,0,0) translate(-543,-362) translate(744,362) rotate(0,0,0)"><text fill="" stroke="none" font-family="helvetica" font-size="8pt" font-style="normal" font-weight="normal" text-decoration="normal" x="0" y="0" text-anchor="middle" dominant-baseline="hanging">10^-3</text><g transform="rotate(0,0,0) translate(-744,-362) translate(945,362) rotate(0,0,0)"><text fill="" stroke="none" font-family="helvetica" font-size="8pt" font-style="normal" font-weight="normal" text-decoration="normal" x="0" y="0" text-anchor="middle" dominant-baseline="hanging">10^-1</text><g transform="rotate(0,0,0) translate(-945,-362) translate(1146,362) rotate(0,0,0)"><text fill="" stroke="none" font-family="helvetica" font-size="8pt" font-style="normal" font-weight="normal" text-decoration="normal" x="0" y="0" text-anchor="middle" dominant-baseline="hanging">10^1</text><g transform="rotate(0,0,0) translate(-1146,-362) translate(616,382) rotate(0,0,0)"><text fill="" stroke="none" font-family="helvetica" font-size="10pt" font-style="italic" font-weight="normal" text-decoration="normal" x="0" y="0" text-anchor="middle" dominant-baseline="hanging">Energy /MeV</text><g transform="rotate(0,0,0) translate(-616,-382)"/></g></g></g></g></g></g></g></g><g fill="#444444"><path fill="none" stroke="black" paint-order="fill stroke markers" d=" M 61 351 L 61 5" stroke-miterlimit="10"/><path fill="none" stroke="black" paint-order="fill stroke markers" d=" M 55 335 L 63 335" stroke-miterlimit="10"/><path fill="none" stroke="black" paint-order="fill stroke markers" d=" M 55 269 L 63 269" stroke-miterlimit="10"/><path fill="none" stroke="black" paint-order="fill stroke markers" d=" M 55 202 L 63 202" stroke-miterlimit="10"/><path fill="none" stroke="black" paint-order="fill stroke markers" d=" M 55 136 L 63 136" stroke-miterlimit="10"/><path fill="none" stroke="black" paint-order="fill stroke markers" d=" M 55 69 L 63 69" stroke-miterlimit="10"/><path fill="none" stroke="black" paint-order="fill stroke markers" d=" M 57 349 L 61 349" stroke-miterlimit="10"/><path fill="none" stroke="black" paint-order="fill stroke markers" d=" M 57 335 L 61 335" stroke-miterlimit="10"/><path fill="none" stroke="black" paint-order="fill stroke markers" d=" M 57 322 L 61 322" stroke-miterlimit="10"/><path fill="none" stroke="black" paint-order="fill stroke markers" d=" M 57 309 L 61 309" stroke-miterlimit="10"/><path fill="none" stroke="black" paint-order="fill stroke markers" d=" M 57 295 L 61 295" stroke-miterlimit="10"/><path fill="none" stroke="black" paint-order="fill stroke markers" d=" M 57 282 L 61 282" stroke-miterlimit="10"/><path fill="none" stroke="black" paint-order="fill stroke markers" d=" M 57 269 L 61 269" stroke-miterlimit="10"/><path fill="none" stroke="black" paint-order="fill stroke markers" d=" M 57 256 L 61 256" stroke-miterlimit="10"/><path fill="none" stroke="black" paint-order="fill stroke markers" d=" M 57 242 L 61 242" stroke-miterlimit="10"/><path fill="none" stroke="black" paint-order="fill stroke markers" d=" M 57 229 L 61 229" stroke-miterlimit="10"/><path fill="none" stroke="black" paint-order="fill stroke markers" d=" M 57 216 L 61 216" stroke-miterlimit="10"/><path fill="none" stroke="black" paint-order="fill stroke markers" d=" M 57 202 L 61 202" stroke-miterlimit="10"/><path fill="none" stroke="black" paint-order="fill stroke markers" d=" M 57 189 L 61 189" stroke-miterlimit="10"/><path fill="none" stroke="black" paint-order="fill stroke markers" d=" M 57 176 L 61 176" stroke-miterlimit="10"/><path fill="none" stroke="black" paint-order="fill stroke markers" d=" M 57 163 L 61 163" stroke-miterlimit="10"/><path fill="none" stroke="black" paint-order="fill stroke markers" d=" M 57 149 L 61 149" stroke-miterlimit="10"/><path fill="none" stroke="black" paint-order="fill stroke markers" d=" M 57 136 L 61 136" stroke-miterlimit="10"/><path fill="none" stroke="black" paint-order="fill stroke markers" d=" M 57 123 L 61 123" stroke-miterlimit="10"/><path fill="none" stroke="black" paint-order="fill stroke markers" d=" M 57 109 L 61 109" stroke-miterlimit="10"/><path fill="none" stroke="black" paint-order="fill stroke markers" d=" M 57 96 L 61 96" stroke-miterlimit="10"/><path fill="none" stroke="black" paint-order="fill stroke markers" d=" M 57 83 L 61 83" stroke-miterlimit="10"/><path fill="none" stroke="black" paint-order="fill stroke markers" d=" M 57 69 L 61 69" stroke-miterlimit="10"/><path fill="none" stroke="black" paint-order="fill stroke markers" d=" M 57 56 L 61 56" stroke-miterlimit="10"/><path fill="none" stroke="black" paint-order="fill stroke markers" d=" M 57 43 L 61 43" stroke-miterlimit="10"/><path fill="none" stroke="black" paint-order="fill stroke markers" d=" M 57 30 L 61 30" stroke-miterlimit="10"/><path fill="" stroke="black" paint-order="fill stroke markers" d=" M 57 16 L 61 16" stroke-miterlimit="10"/><g transform="translate(50,335) rotate(0,0,0)"><text fill="" stroke="none" font-family="helvetica" font-size="8pt" font-style="normal" font-weight="normal" text-decoration="normal" x="0" y="0" text-anchor="end" dominant-baseline="central">0</text><g transform="rotate(0,0,0) translate(-50,-335) translate(50,269) rotate(0,0,0)"><text fill="" stroke="none" font-family="helvetica" font-size="8pt" font-style="normal" font-weight="normal" text-decoration="normal" x="0" y="0" text-anchor="end" dominant-baseline="central">0.02</text><g transform="rotate(0,0,0) translate(-50,-269) translate(50,202) rotate(0,0,0)"><text fill="" stroke="none" font-family="helvetica" font-size="8pt" font-style="normal" font-weight="normal" text-decoration="normal" x="0" y="0" text-anchor="end" dominant-baseline="central">0.04</text><g transform="rotate(0,0,0) translate(-50,-202) translate(50,136) rotate(0,0,0)"><text fill="" stroke="none" font-family="helvetica" font-size="8pt" font-style="normal" font-weight="normal" text-decoration="normal" x="0" y="0" text-anchor="end" dominant-baseline="central">0.06</text><g transform="rotate(0,0,0) translate(-50,-136) translate(50,69) rotate(0,0,0)"><text fill="" stroke="none" font-family="helvetica" font-size="8pt" font-style="normal" font-weight="normal" text-decoration="normal" x="0" y="0" text-anchor="end" dominant-baseline="central">0.08</text><g transform="rotate(0,0,0) translate(-50,-69) translate(18,178) rotate(-90,0,0)"><text fill="" stroke="none" font-family="helvetica" font-size="10pt" font-style="italic" font-weight="normal" text-decoration="normal" x="0" y="0" text-anchor="middle" dominant-baseline="alphabetic">Flux (1/cm^2)</text><g transform="rotate(90,0,0) translate(-18,-178)"/></g></g></g></g></g></g></g></g></g></g></svg>