<svg version="1.1" xmlns="http://www.w3.org/2000/svg" xmlns:xlink="http://www.w3.org/1999/xlink" width="1200" height="400" style="width: 1200px; height: 400px;"><defs><clipPath id="LDbVITnyAzmv"><path fill="none" stroke="none" d=" M 93 5 L 1170 5 L 1170 351 L 93 351 L 93 5 Z"/></clipPath><clipPath id="TiLpgTOTyOam"><path fill="none" stroke="none" d=" M 93 5 L 1170 5 L 1170 351 L 93 351 L 93 5 Z"/></clipPath></defs><g><g transform="scale(1,1) translate(0.5,0.5)"><rect fill="#FFFFFF" stroke="none" x="0" y="0" width="1200" height="400"/><rect fill="#ffffff" stroke="none" x="0" y="0" width="1200" height="400"/><rect fill="#FFFFFF" stroke="none" x="93" y="5" width="1077" height="346"/><rect fill="#ffffff" stroke="none" x="93" y="5" width="1077" height="346"/><g><rect fill="none" stroke="#e5e5e5" x="93" y="5" width="1077" height="346" stroke-miterlimit="10"/></g><g clip-path="url(#LDbVITnyAzmv)"><g><g><path fill="none" stroke="#e5e5e5" paint-order="fill stroke markers" d=" M 171 351 L 171 5" stroke-miterlimit="10"/><path fill="none" stroke="#e5e5e5" paint-order="fill stroke markers" d=" M 366 351 L 366 5" stroke-miterlimit="10"/><path fill="none" stroke="#e5e5e5" paint-order="fill stroke markers" d=" M 561 351 L 561 5" stroke-miterlimit="10"/><path fill="none" stroke="#e5e5e5" paint-order="fill stroke markers" d=" M 756 351 L 756 5" stroke-miterlimit="10"/><path fill="none" stroke="#e5e5e5" paint-order="fill stroke markers" d=" M 951 351 L 951 5" stroke-miterlimit="10"/><path fill="none" stroke="#e5e5e5" paint-order="fill stroke markers" d=" M 1146 351 L 1146 5" stroke-miterlimit="10"/></g><g><path fill="none" stroke="#e5e5e5" paint-order="fill stroke markers" d=" M 93 335 L 1170 335" stroke-miterlimit="10"/><path fill="none" stroke="#e5e5e5" paint-order="fill stroke markers" d=" M 93 263 L 1170 263" stroke-miterlimit="10"/><path fill="none" stroke="#e5e5e5" paint-order="fill stroke markers" d=" M 93 192 L 1170 192" stroke-miterlimit="10"/><path fill="none" stroke="#e5e5e5" paint-order="fill stroke markers" d=" M 93 120 L 1170 120" stroke-miterlimit="10"/><path fill="none" stroke="#e5e5e5" paint-order="fill stroke markers" d=" M 93 48 L 1170 48" stroke-miterlimit="10"/></g><path fill="none" stroke="black" paint-order="fill stroke markers" d=" M 141.95454545454533 335.28632589677966 L 141.95454545454533 335.2480594508727" stroke-miterlimit="10"/><path fill="none" stroke="black" paint-order="fill stroke markers" d=" M 243.49604898913435 328.9241077344864 L 243.49604898913435 328.3642923048697" stroke-miterlimit="10"/><path fill="none" stroke="black" paint-order="fill stroke markers" d=" M 341.0015384953921 163.3343267364904 L 341.0015384953921 160.17564973897535" stroke-miterlimit="10"/><path fill="none" stroke="black" paint-order="fill stroke markers" d=" M 438.50702800164987 265.2693473356751 L 438.50702800164987 262.9337538379505" stroke-miterlimit="10"/><path fill="none" stroke="black" paint-order="fill stroke markers" d=" M 536.0125175079078 290.47725765830353 L 536.0125175079078 288.3288754440483" stroke-miterlimit="10"/><path fill="none" stroke="black" paint-order="fill stroke markers" d=" M 633.5180070141655 289.62504488487974 L 633.5180070141655 287.4070752003986" stroke-miterlimit="10"/><path fill="none" stroke="black" paint-order="fill stroke markers" d=" M 731.0234965204232 283.7011440406798 L 731.0234965204232 281.4009108506031" stroke-miterlimit="10"/><path fill="none" stroke="black" paint-order="fill stroke markers" d=" M 828.5289860266812 279.9016885720932 L 828.5289860266812 277.478411666018" stroke-miterlimit="10"/><path fill="none" stroke="black" paint-order="fill stroke markers" d=" M 926.0344755329389 260.8090473440514 L 926.0344755329389 258.0779003025751" stroke-miterlimit="10"/><path fill="none" stroke="black" paint-order="fill stroke markers" d=" M 1023.5399650391967 126.84547866842391 L 1023.5399650391967 122.46387562918565" stroke-miterlimit="10"/><path fill="none" stroke="black" paint-order="fill stroke markers" d=" M 1121.0454545454545 23.023716923128745 L 1121.0454545454545 18.430828531416694" stroke-miterlimit="10"/><g transform="translate(141.95454545454533,335.28632589677966) rotate(180,0,0)"><path fill="none" stroke="black" paint-order="fill stroke markers" d=" M 5 0 L -5 0" stroke-miterlimit="10"/></g><g transform="translate(243.49604898913435,328.9241077344864) rotate(180,0,0)"><path fill="none" stroke="black" paint-order="fill stroke markers" d=" M 5 0 L -5 0" stroke-miterlimit="10"/></g><g transform="translate(341.0015384953921,163.3343267364904) rotate(180,0,0)"><path fill="none" stroke="black" paint-order="fill stroke markers" d=" M 5 0 L -5 0" stroke-miterlimit="10"/></g><g transform="translate(438.50702800164987,265.2693473356751) rotate(180,0,0)"><path fill="none" stroke="black" paint-order="fill stroke markers" d=" M 5 0 L -5 0" stroke-miterlimit="10"/></g><g transform="translate(536.0125175079078,290.47725765830353) rotate(180,0,0)"><path fill="none" stroke="black" paint-order="fill stroke markers" d=" M 5 0 L -5 0" stroke-miterlimit="10"/></g><g transform="translate(633.5180070141655,289.62504488487974) rotate(180,0,0)"><path fill="none" stroke="black" paint-order="fill stroke markers" d=" M 5 0 L -5 0" stroke-miterlimit="10"/></g><g transform="translate(731.0234965204232,283.7011440406798) rotate(180,0,0)"><path fill="none" stroke="black" paint-order="fill stroke markers" d=" M 5 0 L -5 0" stroke-miterlimit="10"/></g><g transform="translate(828.5289860266812,279.9016885720932) rotate(180,0,0)"><path fill="none" stroke="black" paint-order="fill stroke markers" d=" M 5 0 L -5 0" stroke-miterlimit="10"/></g><g transform="translate(926.0344755329389,260.8090473440514) rotate(180,0,0)"><path fill="none" stroke="black" paint-order="fill stroke markers" d=" M 5 0 L -5 0" stroke-miterlimit="10"/></g><g transform="translate(1023.5399650391967,126.84547866842391) rotate(180,0,0)"><path fill="none" stroke="black" paint-order="fill stroke markers" d=" M 5 0 L -5 0" stroke-miterlimit="10"/></g><g transform="translate(1121.0454545454545,23.023716923128745) rotate(180,0,0)"><path fill="none" stroke="black" paint-order="fill stroke markers" d=" M 5 0 L -5 0" stroke-miterlimit="10"/></g><g transform="translate(141.95454545454533,335.2480594508727) rotate(0,0,0)"><path fill="none" stroke="black" paint-order="fill stroke markers" d=" M 5 0 L -5 0" stroke-miterlimit="10"/></g><g transform="translate(243.49604898913435,328.3642923048697) rotate(0,0,0)"><path fill="none" stroke="black" paint-order="fill stroke markers" d=" M 5 0 L -5 0" stroke-miterlimit="10"/></g><g transform="translate(341.0015384953921,160.17564973897535) rotate(0,0,0)"><path fill="none" stroke="black" paint-order="fill stroke markers" d=" M 5 0 L -5 0" stroke-miterlimit="10"/></g><g transform="translate(438.50702800164987,262.9337538379505) rotate(0,0,0)"><path fill="none" stroke="black" paint-order="fill stroke markers" d=" M 5 0 L -5 0" stroke-miterlimit="10"/></g><g transform="translate(536.0125175079078,288.3288754440483) rotate(0,0,0)"><path fill="none" stroke="black" paint-order="fill stroke markers" d=" M 5 0 L -5 0" stroke-miterlimit="10"/></g><g transform="translate(633.5180070141655,287.4070752003986) rotate(0,0,0)"><path fill="none" stroke="black" paint-order="fill stroke markers" d=" M 5 0 L -5 0" stroke-miterlimit="10"/></g><g transform="translate(731.0234965204232,281.4009108506031) rotate(0,0,0)"><path fill="none" stroke="black" paint-order="fill stroke markers" d=" M 5 0 L -5 0" stroke-miterlimit="10"/></g><g transform="translate(828.5289860266812,277.478411666018) rotate(0,0,0)"><path fill="none" stroke="black" paint-order="fill stroke markers" d=" M 5 0 L -5 0" stroke-miterlimit="10"/></g><g transform="translate(926.0344755329389,258.0779003025751) rotate(0,0,0)"><path fill="none" stroke="black" paint-order="fill stroke markers" d=" M 5 0 L -5 0" stroke-miterlimit="10"/></g><g transform="translate(1023.5399650391967,122.46387562918565) rotate(0,0,0)"><path fill="none" stroke="black" paint-order="fill stroke markers" d=" M 5 0 L -5 0" stroke-miterlimit="10"/></g><g transform="translate(1121.0454545454545,18.430828531416694) rotate(0,0,0)"><path fill="none" stroke="black" paint-order="fill stroke markers" d=" M 5 0 L -5 0" stroke-miterlimit="10"/></g><path fill="none" stroke="black" paint-order="fill stroke markers" d=" M 141.95454545454533 335.2989003442821 L 141.95454545454533 335.2465542011724" stroke-miterlimit="10"/><path fill="none" stroke="black" paint-order="fill stroke markers" d=" M 243.49604898913435 333.03850131828017 L 243.49604898913435 332.61292239165454" stroke-miterlimit="10"/><path fill="none" stroke="black" paint-order="fill stroke markers" d=" M 341.0015384953921 270.5237073594298 L 341.0015384953921 267.7578903702288" stroke-miterlimit="10"/><path fill="none" stroke="black" paint-order="fill stroke markers" d=" M 438.50702800164987 312.47685423707594 L 438.50702800164987 310.6385285373476" stroke-miterlimit="10"/><path fill="none" stroke="black" paint-order="fill stroke markers" d=" M 536.0125175079078 322.9163735081215 L 536.0125175079078 321.56515195663405" stroke-miterlimit="10"/><path fill="none" stroke="black" paint-order="fill stroke markers" d=" M 633.5180070141655 322.08122171173255 L 633.5180070141655 320.2904461731966" stroke-miterlimit="10"/><path fill="none" stroke="black" paint-order="fill stroke markers" d=" M 731.0234965204232 322.8876382098613 L 731.0234965204232 321.41953072941453" stroke-miterlimit="10"/><path fill="none" stroke="black" paint-order="fill stroke markers" d=" M 828.5289860266812 320.1404165738971 L 828.5289860266812 317.986287488134" stroke-miterlimit="10"/><path fill="none" stroke="black" paint-order="fill stroke markers" d=" M 926.0344755329389 315.5497804548643 L 926.0344755329389 313.48740483898746" stroke-miterlimit="10"/><path fill="none" stroke="black" paint-order="fill stroke markers" d=" M 1023.5399650391967 277.94795106032643 L 1023.5399650391967 274.93392316622845" stroke-miterlimit="10"/><path fill="none" stroke="black" paint-order="fill stroke markers" d=" M 1121.0454545454545 235.63369943823642 L 1121.0454545454545 232.22739452429914" stroke-miterlimit="10"/><g transform="translate(141.95454545454533,335.2989003442821) rotate(180,0,0)"><path fill="none" stroke="black" paint-order="fill stroke markers" d=" M 5 0 L -5 0" stroke-miterlimit="10"/></g><g transform="translate(243.49604898913435,333.03850131828017) rotate(180,0,0)"><path fill="none" stroke="black" paint-order="fill stroke markers" d=" M 5 0 L -5 0" stroke-miterlimit="10"/></g><g transform="translate(341.0015384953921,270.5237073594298) rotate(180,0,0)"><path fill="none" stroke="black" paint-order="fill stroke markers" d=" M 5 0 L -5 0" stroke-miterlimit="10"/></g><g transform="translate(438.50702800164987,312.47685423707594) rotate(180,0,0)"><path fill="none" stroke="black" paint-order="fill stroke markers" d=" M 5 0 L -5 0" stroke-miterlimit="10"/></g><g transform="translate(536.0125175079078,322.9163735081215) rotate(180,0,0)"><path fill="none" stroke="black" paint-order="fill stroke markers" d=" M 5 0 L -5 0" stroke-miterlimit="10"/></g><g transform="translate(633.5180070141655,322.08122171173255) rotate(180,0,0)"><path fill="none" stroke="black" paint-order="fill stroke markers" d=" M 5 0 L -5 0" stroke-miterlimit="10"/></g><g transform="translate(731.0234965204232,322.8876382098613) rotate(180,0,0)"><path fill="none" stroke="black" paint-order="fill stroke markers" d=" M 5 0 L -5 0" stroke-miterlimit="10"/></g><g transform="translate(828.5289860266812,320.1404165738971) rotate(180,0,0)"><path fill="none" stroke="black" paint-order="fill stroke markers" d=" M 5 0 L -5 0" stroke-miterlimit="10"/></g><g transform="translate(926.0344755329389,315.5497804548643) rotate(180,0,0)"><path fill="none" stroke="black" paint-order="fill stroke markers" d=" M 5 0 L -5 0" stroke-miterlimit="10"/></g><g transform="translate(1023.5399650391967,277.94795106032643) rotate(180,0,0)"><path fill="none" stroke="black" paint-order="fill stroke markers" d=" M 5 0 L -5 0" stroke-miterlimit="10"/></g><g transform="translate(1121.0454545454545,235.63369943823642) rotate(180,0,0)"><path fill="none" stroke="black" paint-order="fill stroke markers" d=" M 5 0 L -5 0" stroke-miterlimit="10"/></g><g transform="translate(141.95454545454533,335.2465542011724) rotate(0,0,0)"><path fill="none" stroke="black" paint-order="fill stroke markers" d=" M 5 0 L -5 0" stroke-miterlimit="10"/></g><g transform="translate(243.49604898913435,332.61292239165454) rotate(0,0,0)"><path fill="none" stroke="black" paint-order="fill stroke markers" d=" M 5 0 L -5 0" stroke-miterlimit="10"/></g><g transform="translate(341.0015384953921,267.7578903702288) rotate(0,0,0)"><path fill="none" stroke="black" paint-order="fill stroke markers" d=" M 5 0 L -5 0" stroke-miterlimit="10"/></g><g transform="translate(438.50702800164987,310.6385285373476) rotate(0,0,0)"><path fill="none" stroke="black" paint-order="fill stroke markers" d=" M 5 0 L -5 0" stroke-miterlimit="10"/></g><g transform="translate(536.0125175079078,321.56515195663405) rotate(0,0,0)"><path fill="none" stroke="black" paint-order="fill stroke markers" d=" M 5 0 L -5 0" stroke-miterlimit="10"/></g><g transform="translate(633.5180070141655,320.2904461731966) rotate(0,0,0)"><path fill="none" stroke="black" paint-order="fill stroke markers" d=" M 5 0 L -5 0" stroke-miterlimit="10"/></g><g transform="translate(731.0234965204232,321.41953072941453) rotate(0,0,0)"><path fill="none" stroke="black" paint-order="fill stroke markers" d=" M 5 0 L -5 0" stroke-miterlimit="10"/></g><g transform="translate(828.5289860266812,317.986287488134) rotate(0,0,0)"><path fill="none" stroke="black" paint-order="fill stroke markers" d=" M 5 0 L -5 0" stroke-miterlimit="10"/></g><g transform="translate(926.0344755329389,313.48740483898746) rotate(0,0,0)"><path fill="none" stroke="black" paint-order="fill stroke markers" d=" M 5 0 L -5 0" stroke-miterlimit="10"/></g><g transform="translate(1023.5399650391967,274.93392316622845) rotate(0,0,0)"><path fill="none" stroke="black" paint-order="fill stroke markers" d=" M 5 0 L -5 0" stroke-miterlimit="10"/></g><g transform="translate(1121.0454545454545,232.22739452429914) rotate(0,0,0)"><path fill="none" stroke="black" paint-order="fill stroke markers" d=" M 5 0 L -5 0" stroke-miterlimit="10"/></g><g><path fill="none" stroke="none"/><path fill="none" stroke="#5e4fa2" paint-order="fill stroke markers" d=" M 141.95454545454533 335.2671926738262 L 243.49604898913435 328.64420001967807 L 341.0015384953921 161.75498823773287 L 438.50702800164987 264.1015505868128 L 536.0125175079078 289.4030665511759 L 633.5180070141655 288.5160600426392 L 731.0234965204232 282.55102744564147 L 828.5289860266812 278.6900501190556 L 926.0344755329389 259.44347382331324 L 1023.5399650391967 124.65467714880478 L 1121.0454545454545 20.727272727272748" stroke-miterlimit="10"/></g><g><path fill="none" stroke="none"/><path fill="none" stroke="#3288bd" paint-order="fill stroke markers" d=" M 141.95454545454533 335.27272727272725 L 243.49604898913435 332.8257118549673 L 341.0015384953921 269.1407988648293 L 438.50702800164987 311.5576913872118 L 536.0125175079078 322.2407627323778 L 633.5180070141655 321.18583394246457 L 731.0234965204232 322.1535844696379 L 828.5289860266812 319.06335203101554 L 926.0344755329389 314.51859264692587 L 1023.5399650391967 276.4409371132774 L 1121.0454545454545 233.93054698126775" stroke-miterlimit="10"/></g></g></g><g clip-path="url(#TiLpgTOTyOam)"><g><g/><g><path fill="#ffffff" stroke="#e5e5e5" paint-order="fill stroke markers" d=" M 1063.28125 15 L 1160 15 L 1160 78 L 1063.28125 78 L 1063.28125 15 Z" fill-opacity="0.95" stroke-miterlimit="10" stroke-opacity="0.5"/><text fill="#444444" stroke="none" font-family="helvetica" font-size="10pt" font-style="normal" font-weight="normal" text-decoration="normal" x="1098.28125" y="35" text-anchor="start" dominant-baseline="central">Tally 12</text><g><path fill="none" stroke="#5e4fa2" paint-order="fill stroke markers" d=" M 1073.28125 35 L 1093.28125 35" stroke-miterlimit="10"/></g><text fill="#444444" stroke="none" font-family="helvetica" font-size="10pt" font-style="normal" font-weight="normal" text-decoration="normal" x="1098.28125" y="58" text-anchor="start" dominant-baseline="central">Tally 22</text><g><path fill="none" stroke="#3288bd" paint-order="fill stroke markers" d=" M 1073.28125 58 L 1093.28125 58" stroke-miterlimit="10"/></g></g></g></g><g><g fill="#444444"><path fill="none" stroke="black" paint-order="fill stroke markers" d=" M 93 351 L 1170 351" stroke-miterlimit="10"/><path fill="none" stroke="black" paint-order="fill stroke markers" d=" M 171 357 L 171 349" stroke-miterlimit="10"/><path fill="none" stroke="black" paint-order="fill stroke markers" d=" M 366 357 L 366 349" stroke-miterlimit="10"/><path fill="none" stroke="black" paint-order="fill stroke markers" d=" M 561 357 L 561 349" stroke-miterlimit="10"/><path fill="none" stroke="black" paint-order="fill stroke markers" d=" M 756 357 L 756 349" stroke-miterlimit="10"/><path fill="none" stroke="black" paint-order="fill stroke markers" d=" M 951 357 L 951 349" stroke-miterlimit="10"/><path fill="none" stroke="black" paint-order="fill stroke markers" d=" M 1146 357 L 1146 349" stroke-miterlimit="10"/><path fill="none" stroke="black" paint-order="fill stroke markers" d=" M 171 355 L 171 351" stroke-miterlimit="10"/><path fill="none" stroke="black" paint-order="fill stroke markers" d=" M 269 355 L 269 351" stroke-miterlimit="10"/><path fill="none" stroke="black" paint-order="fill stroke markers" d=" M 298 355 L 298 351" stroke-miterlimit="10"/><path fill="none" stroke="black" paint-order="fill stroke markers" d=" M 315 355 L 315 351" stroke-miterlimit="10"/><path fill="none" stroke="black" paint-order="fill stroke markers" d=" M 328 355 L 328 351" stroke-miterlimit="10"/><path fill="none" stroke="black" paint-order="fill stroke markers" d=" M 337 355 L 337 351" stroke-miterlimit="10"/><path fill="none" stroke="black" paint-order="fill stroke markers" d=" M 345 355 L 345 351" stroke-miterlimit="10"/><path fill="none" stroke="black" paint-order="fill stroke markers" d=" M 351 355 L 351 351" stroke-miterlimit="10"/><path fill="none" stroke="black" paint-order="fill stroke markers" d=" M 357 355 L 357 351" stroke-miterlimit="10"/><path fill="none" stroke="black" paint-order="fill stroke markers" d=" M 362 355 L 362 351" stroke-miterlimit="10"/><path fill="none" stroke="black" paint-order="fill stroke markers" d=" M 366 355 L 366 351" stroke-miterlimit="10"/><path fill="none" stroke="black" paint-order="fill stroke markers" d=" M 464 355 L 464 351" stroke-miterlimit="10"/><path fill="none" stroke="black" paint-order="fill stroke markers" d=" M 493 355 L 493 351" stroke-miterlimit="10"/><path fill="none" stroke="black" paint-order="fill stroke markers" d=" M 510 355 L 510 351" stroke-miterlimit="10"/><path fill="none" stroke="black" paint-order="fill stroke markers" d=" M 523 355 L 523 351" stroke-miterlimit="10"/><path fill="none" stroke="black" paint-order="fill stroke markers" d=" M 532 355 L 532 351" stroke-miterlimit="10"/><path fill="none" stroke="black" paint-order="fill stroke markers" d=" M 540 355 L 540 351" stroke-miterlimit="10"/><path fill="none" stroke="black" paint-order="fill stroke markers" d=" M 546 355 L 546 351" stroke-miterlimit="10"/><path fill="none" stroke="black" paint-order="fill stroke markers" d=" M 552 355 L 552 351" stroke-miterlimit="10"/><path fill="none" stroke="black" paint-order="fill stroke markers" d=" M 557 355 L 557 351" stroke-miterlimit="10"/><path fill="none" stroke="black" paint-order="fill stroke markers" d=" M 561 355 L 561 351" stroke-miterlimit="10"/><path fill="none" stroke="black" paint-order="fill stroke markers" d=" M 659 355 L 659 351" stroke-miterlimit="10"/><path fill="none" stroke="black" paint-order="fill stroke markers" d=" M 688 355 L 688 351" stroke-miterlimit="10"/><path fill="none" stroke="black" paint-order="fill stroke markers" d=" M 705 355 L 705 351" stroke-miterlimit="10"/><path fill="none" stroke="black" paint-order="fill stroke markers" d=" M 718 355 L 718 351" stroke-miterlimit="10"/><path fill="none" stroke="black" paint-order="fill stroke markers" d=" M 727 355 L 727 351" stroke-miterlimit="10"/><path fill="none" stroke="black" paint-order="fill stroke markers" d=" M 735 355 L 735 351" stroke-miterlimit="10"/><path fill="none" stroke="black" paint-order="fill stroke markers" d=" M 741 355 L 741 351" stroke-miterlimit="10"/><path fill="none" stroke="black" paint-order="fill stroke markers" d=" M 747 355 L 747 351" stroke-miterlimit="10"/><path fill="none" stroke="black" paint-order="fill stroke markers" d=" M 752 355 L 752 351" stroke-miterlimit="10"/><path fill="none" stroke="black" paint-order="fill stroke markers" d=" M 756 355 L 756 351" stroke-miterlimit="10"/><path fill="none" stroke="black" paint-order="fill stroke markers" d=" M 854 355 L 854 351" stroke-miterlimit="10"/><path fill="none" stroke="black" paint-order="fill stroke markers" d=" M 883 355 L 883 351" stroke-miterlimit="10"/><path fill="none" stroke="black" paint-order="fill stroke markers" d=" M 900 355 L 900 351" stroke-miterlimit="10"/><path fill="none" stroke="black" paint-order="fill stroke markers" d=" M 913 355 L 913 351" stroke-miterlimit="10"/><path fill="none" stroke="black" paint-order="fill stroke markers" d=" M 922 355 L 922 351" stroke-miterlimit="10"/><path fill="none" stroke="black" paint-order="fill stroke markers" d=" M 930 355 L 930 351" stroke-miterlimit="10"/><path fill="none" stroke="black" paint-order="fill stroke markers" d=" M 936 355 L 936 351" stroke-miterlimit="10"/><path fill="none" stroke="black" paint-order="fill stroke markers" d=" M 942 355 L 942 351" stroke-miterlimit="10"/><path fill="none" stroke="black" paint-order="fill stroke markers" d=" M 947 355 L 947 351" stroke-miterlimit="10"/><path fill="none" stroke="black" paint-order="fill stroke markers" d=" M 951 355 L 951 351" stroke-miterlimit="10"/><path fill="none" stroke="black" paint-order="fill stroke markers" d=" M 1049 355 L 1049 351" stroke-miterlimit="10"/><path fill="none" stroke="black" paint-order="fill stroke markers" d=" M 1078 355 L 1078 351" stroke-miterlimit="10"/><path fill="none" stroke="black" paint-order="fill stroke markers" d=" M 1095 355 L 1095 351" stroke-miterlimit="10"/><path fill="none" stroke="black" paint-order="fill stroke markers" d=" M 1108 355 L 1108 351" stroke-miterlimit="10"/><path fill="none" stroke="black" paint-order="fill stroke markers" d=" M 1117 355 L 1117 351" stroke-miterlimit="10"/><path fill="none" stroke="black" paint-order="fill stroke markers" d=" M 1125 355 L 1125 351" stroke-miterlimit="10"/><path fill="none" stroke="black" paint-order="fill stroke markers" d=" M 1131 355 L 1131 351" stroke-miterlimit="10"/><path fill="none" stroke="black" paint-order="fill stroke markers" d=" M 1137 355 L 1137 351" stroke-miterlimit="10"/><path fill="none" stroke="black" paint-order="fill stroke markers" d=" M 1142 355 L 1142 351" stroke-miterlimit="10"/><path fill="" stroke="black" paint-order="fill stroke markers" d=" M 1146 355 L 1146 351" stroke-miterlimit="10"/><g transform="translate(171,362) rotate(0,0,0)"><text fill="" stroke="none" font-family="helvetica" font-size="8pt" font-style="normal" font-weight="normal" text-decoration="normal" x="0" y="0" text-anchor="middle" dominant-baseline="hanging">10^-9</text><g transform="rotate(0,0,0) translate(-171,-362) translate(366,362) rotate(0,0,0)"><text fill="" stroke="none" font-family="helvetica" font-size="8pt" font-style="normal" font-weight="normal" text-decoration="normal" x="0" y="0" text-anchor="middle" dominant-baseline="hanging">10^-7</text><g transform="rotate(0,0,0) translate(-366,-362) translate(561,362) rotate(0,0,0)"><text fill="" stroke="none" font-family="helvetica" font-size="8pt" font-style="normal" font-weight="normal" text-decoration="normal" x="0" y="0" text-anchor="middle" dominant-baseline="hanging">10^-5</text><g transform="rotate(0,0,0) translate(-561,-362) translate(756,362) rotate(0,0,0)"><text fill="" stroke="none" font-family="helvetica" font-size="8pt" font-style="normal" font-weight="normal" text-decoration="normal" x="0" y="0" text-anchor="middle" dominant-baseline="hanging">10^-3</text><g transform="rotate(0,0,0) translate(-756,-362) translate(951,362) rotate(0,0,0)"><text fill="" stroke="none" font-family="helvetica" font-size="8pt" font-style="normal" font-weight="normal" text-decoration="normal" x="0" y="0" text-anchor="middle" dominant-baseline="hanging">10^-1</text><g transform="rotate(0,0,0) translate(-951,-362) translate(1146,362) rotate(0,0,0)"><text fill="" stroke="none" font-family="helvetica" font-size="8pt" font-style="normal" font-weight="normal" text-decoration="normal" x="0" y="0" text-anchor="middle" dominant-baseline="hanging">10^1</text><g transform="rotate(0,0,0) translate(-1146,-362) translate(632,382) rotate(0,0,0)"><text fill="" stroke="none" font-family="helvetica" font-size="10pt" font-style="italic" font-weight="normal" text-decoration="normal" x="0" y="0" text-anchor="middle" dominant-baseline="hanging">Energy /MeV</text><g transform="rotate(0,0,0) translate(-632,-382)"/></g></g></g></g></g></g></g></g><g fill="#444444"><path fill="none" stroke="black" paint-order="fill stroke markers" d=" M 93 351 L 93 5" stroke-miterlimit="10"/><path fill="none" stroke="black" paint-order="fill stroke markers" d=" M 87 335 L 95 335" stroke-miterlimit="10"/><path fill="none" stroke="black" paint-order="fill stroke markers" d=" M 87 263 L 95 263" stroke-miterlimit="10"/><path fill="none" stroke="black" paint-order="fill stroke markers" d=" M 87 192 L 95 192" stroke-miterlimit="10"/><path fill="none" stroke="black" paint-order="fill stroke markers" d=" M 87 120 L 95 120" stroke-miterlimit="10"/><path fill="none" stroke="black" paint-order="fill stroke markers" d=" M 87 48 L 95 48" stroke-miterlimit="10"/><path fill="none" stroke="black" paint-order="fill stroke markers" d=" M 89 350 L 93 350" stroke-miterlimit="10"/><path fill="none" stroke="black" paint-order="fill stroke markers" d=" M 89 335 L 93 335" stroke-miterlimit="10"/><path fill="none" stroke="black" paint-order="fill stroke markers" d=" M 89 321 L 93 321" stroke-miterlimit="10"/><path fill="none" stroke="black" paint-order="fill stroke markers" d=" M 89 307 L 93 307" stroke-miterlimit="10"/><path fill="none" stroke="black" paint-order="fill stroke markers" d=" M 89 292 L 93 292" stroke-miterlimit="10"/><path fill="none" stroke="black" paint-order="fill stroke markers" d=" M 89 278 L 93 278" stroke-miterlimit="10"/><path fill="none" stroke="black" paint-order="fill stroke markers" d=" M 89 263 L 93 263" stroke-miterlimit="10"/><path fill="none" stroke="black" paint-order="fill stroke markers" d=" M 89 249 L 93 249" stroke-miterlimit="10"/><path fill="none" stroke="black" paint-order="fill stroke markers" d=" M 89 235 L 93 235" stroke-miterlimit="10"/><path fill="none" stroke="black" paint-order="fill stroke markers" d=" M 89 220 L 93 220" stroke-miterlimit="10"/><path fill="none" stroke="black" paint-order="fill stroke markers" d=" M 89 206 L 93 206" stroke-miterlimit="10"/><path fill="none" stroke="black" paint-order="fill stroke markers" d=" M 89 192 L 93 192" stroke-miterlimit="10"/><path fill="none" stroke="black" paint-order="fill stroke markers" d=" M 89 177 L 93 177" stroke-miterlimit="10"/><path fill="none" stroke="black" paint-order="fill stroke markers" d=" M 89 163 L 93 163" stroke-miterlimit="10"/><path fill="none" stroke="black" paint-order="fill stroke markers" d=" M 89 149 L 93 149" stroke-miterlimit="10"/><path fill="none" stroke="black" paint-order="fill stroke markers" d=" M 89 134 L 93 134" stroke-miterlimit="10"/><path fill="none" stroke="black" paint-order="fill stroke markers" d=" M 89 120 L 93 120" stroke-miterlimit="10"/><path fill="none" stroke="black" paint-order="fill stroke markers" d=" M 89 106 L 93 106" stroke-miterlimit="10"/><path fill="none" stroke="black" paint-order="fill stroke markers" d=" M 89 91 L 93 91" stroke-miterlimit="10"/><path fill="none" stroke="black" paint-order="fill stroke markers" d=" M 89 77 L 93 77" stroke-miterlimit="10"/><path fill="none" stroke="black" paint-order="fill stroke markers" d=" M 89 62 L 93 62" stroke-miterlimit="10"/><path fill="none" stroke="black" paint-order="fill stroke markers" d=" M 89 48 L 93 48" stroke-miterlimit="10"/><path fill="none" stroke="black" paint-order="fill stroke markers" d=" M 89 34 L 93 34" stroke-miterlimit="10"/><path fill="" stroke="black" paint-order="fill stroke markers" d=" M 89 19 L 93 19" stroke-miterlimit="10"/><g transform="translate(82,335) rotate(0,0,0)"><text fill="" stroke="none" font-family="helvetica" font-size="8pt" font-style="normal" font-weight="normal" text-decoration="normal" x="0" y="0" text-anchor="end" dominant-baseline="central">0.000e+0</text><g transform="rotate(0,0,0) translate(-82,-335) translate(82,263) rotate(0,0,0)"><text fill="" stroke="none" font-family="helvetica" font-size="8pt" font-style="normal" font-weight="normal" text-decoration="normal" x="0" y="0" text-anchor="end" dominant-baseline="central">5.000e-5</text><g transform="rotate(0,0,0) translate(-82,-263) translate(82,192) rotate(0,0,0)"><text fill="" stroke="none" font-family="helvetica" font-size="8pt" font-style="normal" font-weight="normal" text-decoration="normal" x="0" y="0" text-anchor="end" dominant-baseline="central">1.000e-4</text><g transform="rotate(0,0,0) translate(-82,-192) translate(82,120) rotate(0,0,0)"><text fill="" stroke="none" font-family="helvetica" font-size="8pt" font-style="normal" font-weight="normal" text-decoration="normal" x="0" y="0" text-anchor="end" dominant-baseline="central">1.500e-4</text><g transform="rotate(0,0,0) translate(-82,-120) translate(82,48) rotate(0,0,0)"><text fill="" stroke="none" font-family="helvetica" font-size="8pt" font-style="normal" font-weight="normal" text-decoration="normal" x="0" y="0" text-anchor="end" dominant-baseline="central">2.000e-4</text><g transform="rotate(0,0,0) translate(-82,-48) translate(17,178) rotate(-90,0,0)"><text fill="" stroke="none" font-family="helvetica" font-size="10pt" font-style="italic" font-weight="normal" text-decoration="normal" x="0" y="0" text-anchor="middle" dominant-baseline="alphabetic">Flux (1/cm^2)</text><g transform="rotate(90,0,0) translate(-17,-178)"/></g></g></g></g></g></g></g></g></g></g></svg>