<svg version="1.1" xmlns="http://www.w3.org/2000/svg" xmlns:xlink="http://www.w3.org/1999/xlink" width="1200" height="400" style="width: 1200px; height: 400px;"><defs><clipPath id="SRRMfWniIgWG"><path fill="none" stroke="none" d=" M 93 5 L 1170 5 L 1170 351 L 93 351 L 93 5 Z"/></clipPath><clipPath id="HxcIMRqwsQmH"><path fill="none" stroke="none" d=" M 93 5 L 1170 5 L 1170 351 L 93 351 L 93 5 Z"/></clipPath></defs><g><g transform="scale(1,1) translate(0.5,0.5)"><rect fill="#FFFFFF" stroke="none" x="0" y="0" width="1200" height="400"/><rect fill="#ffffff" stroke="none" x="0" y="0" width="1200" height="400"/><rect fill="#FFFFFF" stroke="none" x="93" y="5" width="1077" height="346"/><rect fill="#ffffff" stroke="none" x="93" y="5" width="1077" height="346"/><g><rect fill="none" stroke="#e5e5e5" x="93" y="5" width="1077" height="346" stroke-miterlimit="10"/></g><g clip-path="url(#SRRMfWniIgWG)"><g><g><path fill="none" stroke="#e5e5e5" paint-order="fill stroke markers" d=" M 171 351 L 171 5" stroke-miterlimit="10"/><path fill="none" stroke="#e5e5e5" paint-order="fill stroke markers" d=" M 366 351 L 366 5" stroke-miterlimit="10"/><path fill="none" stroke="#e5e5e5" paint-order="fill stroke markers" d=" M 561 351 L 561 5" stroke-miterlimit="10"/><path fill="none" stroke="#e5e5e5" paint-order="fill stroke markers" d=" M 756 351 L 756 5" stroke-miterlimit="10"/><path fill="none" stroke="#e5e5e5" paint-order="fill stroke markers" d=" M 951 351 L 951 5" stroke-miterlimit="10"/><path fill="none" stroke="#e5e5e5" paint-order="fill stroke markers" d=" M 1146 351 L 1146 5" stroke-miterlimit="10"/></g><g><path fill="none" stroke="#e5e5e5" paint-order="fill stroke markers" d=" M 93 335 L 1170 335" stroke-miterlimit="10"/><path fill="none" stroke="#e5e5e5" paint-order="fill stroke markers" d=" M 93 264 L 1170 264" stroke-miterlimit="10"/><path fill="none" stroke="#e5e5e5" paint-order="fill stroke markers" d=" M 93 193 L 1170 193" stroke-miterlimit="10"/><path fill="none" stroke="#e5e5e5" paint-order="fill stroke markers" d=" M 93 122 L 1170 122" stroke-miterlimit="10"/><path fill="none" stroke="#e5e5e5" paint-order="fill stroke markers" d=" M 93 50 L 1170 50" stroke-miterlimit="10"/></g><path fill="none" stroke="black" paint-order="fill stroke markers" d=" M 141.95454545454533 335.3136036550911 L 141.95454545454533 335.1460471639221" stroke-miterlimit="10"/><path fill="none" stroke="black" paint-order="fill stroke markers" d=" M 243.49604898913435 325.9160624220954 L 243.49604898913435 323.61206805085436" stroke-miterlimit="10"/><path fill="none" stroke="black" paint-order="fill stroke markers" d=" M 341.0015384953921 111.80564771828276 L 341.0015384953921 99.54131947683504" stroke-miterlimit="10"/><path fill="none" stroke="black" paint-order="fill stroke markers" d=" M 438.50702800164987 268.96021672884115 L 438.50702800164987 260.71089840479135" stroke-miterlimit="10"/><path fill="none" stroke="black" paint-order="fill stroke markers" d=" M 536.0125175079078 295.41310914656117 L 536.0125175079078 288.0993219230276" stroke-miterlimit="10"/><path fill="none" stroke="black" paint-order="fill stroke markers" d=" M 633.5180070141655 291.6298007061853 L 633.5180070141655 284.8366347333339" stroke-miterlimit="10"/><path fill="none" stroke="black" paint-order="fill stroke markers" d=" M 731.0234965204232 288.2764146817979 L 731.0234965204232 281.11494713953596" stroke-miterlimit="10"/><path fill="none" stroke="black" paint-order="fill stroke markers" d=" M 828.5289860266812 284.7999374143352 L 828.5289860266812 277.4943997585692" stroke-miterlimit="10"/><path fill="none" stroke="black" paint-order="fill stroke markers" d=" M 926.0344755329389 265.00988757462153 L 926.0344755329389 256.7126739840958" stroke-miterlimit="10"/><path fill="none" stroke="black" paint-order="fill stroke markers" d=" M 1023.5399650391967 138.78174073251614 L 1023.5399650391967 125.28190844643694" stroke-miterlimit="10"/><path fill="none" stroke="black" paint-order="fill stroke markers" d=" M 1121.0454545454545 28.27803942476538 L 1121.0454545454545 13.176506029780171" stroke-miterlimit="10"/><g transform="translate(141.95454545454533,335.3136036550911) rotate(180,0,0)"><path fill="none" stroke="black" paint-order="fill stroke markers" d=" M 5 0 L -5 0" stroke-miterlimit="10"/></g><g transform="translate(243.49604898913435,325.9160624220954) rotate(180,0,0)"><path fill="none" stroke="black" paint-order="fill stroke markers" d=" M 5 0 L -5 0" stroke-miterlimit="10"/></g><g transform="translate(341.0015384953921,111.80564771828276) rotate(180,0,0)"><path fill="none" stroke="black" paint-order="fill stroke markers" d=" M 5 0 L -5 0" stroke-miterlimit="10"/></g><g transform="translate(438.50702800164987,268.96021672884115) rotate(180,0,0)"><path fill="none" stroke="black" paint-order="fill stroke markers" d=" M 5 0 L -5 0" stroke-miterlimit="10"/></g><g transform="translate(536.0125175079078,295.41310914656117) rotate(180,0,0)"><path fill="none" stroke="black" paint-order="fill stroke markers" d=" M 5 0 L -5 0" stroke-miterlimit="10"/></g><g transform="translate(633.5180070141655,291.6298007061853) rotate(180,0,0)"><path fill="none" stroke="black" paint-order="fill stroke markers" d=" M 5 0 L -5 0" stroke-miterlimit="10"/></g><g transform="translate(731.0234965204232,288.2764146817979) rotate(180,0,0)"><path fill="none" stroke="black" paint-order="fill stroke markers" d=" M 5 0 L -5 0" stroke-miterlimit="10"/></g><g transform="translate(828.5289860266812,284.7999374143352) rotate(180,0,0)"><path fill="none" stroke="black" paint-order="fill stroke markers" d=" M 5 0 L -5 0" stroke-miterlimit="10"/></g><g transform="translate(926.0344755329389,265.00988757462153) rotate(180,0,0)"><path fill="none" stroke="black" paint-order="fill stroke markers" d=" M 5 0 L -5 0" stroke-miterlimit="10"/></g><g transform="translate(1023.5399650391967,138.78174073251614) rotate(180,0,0)"><path fill="none" stroke="black" paint-order="fill stroke markers" d=" M 5 0 L -5 0" stroke-miterlimit="10"/></g><g transform="translate(1121.0454545454545,28.27803942476538) rotate(180,0,0)"><path fill="none" stroke="black" paint-order="fill stroke markers" d=" M 5 0 L -5 0" stroke-miterlimit="10"/></g><g transform="translate(141.95454545454533,335.1460471639221) rotate(0,0,0)"><path fill="none" stroke="black" paint-order="fill stroke markers" d=" M 5 0 L -5 0" stroke-miterlimit="10"/></g><g transform="translate(243.49604898913435,323.61206805085436) rotate(0,0,0)"><path fill="none" stroke="black" paint-order="fill stroke markers" d=" M 5 0 L -5 0" stroke-miterlimit="10"/></g><g transform="translate(341.0015384953921,99.54131947683504) rotate(0,0,0)"><path fill="none" stroke="black" paint-order="fill stroke markers" d=" M 5 0 L -5 0" stroke-miterlimit="10"/></g><g transform="translate(438.50702800164987,260.71089840479135) rotate(0,0,0)"><path fill="none" stroke="black" paint-order="fill stroke markers" d=" M 5 0 L -5 0" stroke-miterlimit="10"/></g><g transform="translate(536.0125175079078,288.0993219230276) rotate(0,0,0)"><path fill="none" stroke="black" paint-order="fill stroke markers" d=" M 5 0 L -5 0" stroke-miterlimit="10"/></g><g transform="translate(633.5180070141655,284.8366347333339) rotate(0,0,0)"><path fill="none" stroke="black" paint-order="fill stroke markers" d=" M 5 0 L -5 0" stroke-miterlimit="10"/></g><g transform="translate(731.0234965204232,281.11494713953596) rotate(0,0,0)"><path fill="none" stroke="black" paint-order="fill stroke markers" d=" M 5 0 L -5 0" stroke-miterlimit="10"/></g><g transform="translate(828.5289860266812,277.4943997585692) rotate(0,0,0)"><path fill="none" stroke="black" paint-order="fill stroke markers" d=" M 5 0 L -5 0" stroke-miterlimit="10"/></g><g transform="translate(926.0344755329389,256.7126739840958) rotate(0,0,0)"><path fill="none" stroke="black" paint-order="fill stroke markers" d=" M 5 0 L -5 0" stroke-miterlimit="10"/></g><g transform="translate(1023.5399650391967,125.28190844643694) rotate(0,0,0)"><path fill="none" stroke="black" paint-order="fill stroke markers" d=" M 5 0 L -5 0" stroke-miterlimit="10"/></g><g transform="translate(1121.0454545454545,13.176506029780171) rotate(0,0,0)"><path fill="none" stroke="black" paint-order="fill stroke markers" d=" M 5 0 L -5 0" stroke-miterlimit="10"/></g><path fill="none" stroke="black" paint-order="fill stroke markers" d=" M 141.95454545454533 335.34255178946415 L 141.95454545454533 335.2029027559904" stroke-miterlimit="10"/><path fill="none" stroke="black" paint-order="fill stroke markers" d=" M 243.49604898913435 331.1226072033726 L 243.49604898913435 327.03110933445237" stroke-miterlimit="10"/><path fill="none" stroke="black" paint-order="fill stroke markers" d=" M 341.0015384953921 258.3142560015358 L 341.0015384953921 248.14891859769233" stroke-miterlimit="10"/><path fill="none" stroke="black" paint-order="fill stroke markers" d=" M 438.50702800164987 314.73652388556644 L 438.50702800164987 309.9015899639815" stroke-miterlimit="10"/><path fill="none" stroke="black" paint-order="fill stroke markers" d=" M 536.0125175079078 324.71355859847 L 536.0125175079078 320.7215314610518" stroke-miterlimit="10"/><path fill="none" stroke="black" paint-order="fill stroke markers" d=" M 633.5180070141655 322.4838379270164 L 633.5180070141655 317.9347860415842" stroke-miterlimit="10"/><path fill="none" stroke="black" paint-order="fill stroke markers" d=" M 731.0234965204232 320.9270771765832 L 731.0234965204232 316.10453133317054" stroke-miterlimit="10"/><path fill="none" stroke="black" paint-order="fill stroke markers" d=" M 828.5289860266812 319.1615510247275 L 828.5289860266812 310.5538076124698" stroke-miterlimit="10"/><path fill="none" stroke="black" paint-order="fill stroke markers" d=" M 926.0344755329389 321.08288439192756 L 926.0344755329389 316.1052321126841" stroke-miterlimit="10"/><path fill="none" stroke="black" paint-order="fill stroke markers" d=" M 1023.5399650391967 281.6534833386962 L 1023.5399650391967 270.10578470857206" stroke-miterlimit="10"/><path fill="none" stroke="black" paint-order="fill stroke markers" d=" M 1121.0454545454545 232.90708540671017 L 1121.0454545454545 220.89157654030203" stroke-miterlimit="10"/><g transform="translate(141.95454545454533,335.34255178946415) rotate(180,0,0)"><path fill="none" stroke="black" paint-order="fill stroke markers" d=" M 5 0 L -5 0" stroke-miterlimit="10"/></g><g transform="translate(243.49604898913435,331.1226072033726) rotate(180,0,0)"><path fill="none" stroke="black" paint-order="fill stroke markers" d=" M 5 0 L -5 0" stroke-miterlimit="10"/></g><g transform="translate(341.0015384953921,258.3142560015358) rotate(180,0,0)"><path fill="none" stroke="black" paint-order="fill stroke markers" d=" M 5 0 L -5 0" stroke-miterlimit="10"/></g><g transform="translate(438.50702800164987,314.73652388556644) rotate(180,0,0)"><path fill="none" stroke="black" paint-order="fill stroke markers" d=" M 5 0 L -5 0" stroke-miterlimit="10"/></g><g transform="translate(536.0125175079078,324.71355859847) rotate(180,0,0)"><path fill="none" stroke="black" paint-order="fill stroke markers" d=" M 5 0 L -5 0" stroke-miterlimit="10"/></g><g transform="translate(633.5180070141655,322.4838379270164) rotate(180,0,0)"><path fill="none" stroke="black" paint-order="fill stroke markers" d=" M 5 0 L -5 0" stroke-miterlimit="10"/></g><g transform="translate(731.0234965204232,320.9270771765832) rotate(180,0,0)"><path fill="none" stroke="black" paint-order="fill stroke markers" d=" M 5 0 L -5 0" stroke-miterlimit="10"/></g><g transform="translate(828.5289860266812,319.1615510247275) rotate(180,0,0)"><path fill="none" stroke="black" paint-order="fill stroke markers" d=" M 5 0 L -5 0" stroke-miterlimit="10"/></g><g transform="translate(926.0344755329389,321.08288439192756) rotate(180,0,0)"><path fill="none" stroke="black" paint-order="fill stroke markers" d=" M 5 0 L -5 0" stroke-miterlimit="10"/></g><g transform="translate(1023.5399650391967,281.6534833386962) rotate(180,0,0)"><path fill="none" stroke="black" paint-order="fill stroke markers" d=" M 5 0 L -5 0" stroke-miterlimit="10"/></g><g transform="translate(1121.0454545454545,232.90708540671017) rotate(180,0,0)"><path fill="none" stroke="black" paint-order="fill stroke markers" d=" M 5 0 L -5 0" stroke-miterlimit="10"/></g><g transform="translate(141.95454545454533,335.2029027559904) rotate(0,0,0)"><path fill="none" stroke="black" paint-order="fill stroke markers" d=" M 5 0 L -5 0" stroke-miterlimit="10"/></g><g transform="translate(243.49604898913435,327.03110933445237) rotate(0,0,0)"><path fill="none" stroke="black" paint-order="fill stroke markers" d=" M 5 0 L -5 0" stroke-miterlimit="10"/></g><g transform="translate(341.0015384953921,248.14891859769233) rotate(0,0,0)"><path fill="none" stroke="black" paint-order="fill stroke markers" d=" M 5 0 L -5 0" stroke-miterlimit="10"/></g><g transform="translate(438.50702800164987,309.9015899639815) rotate(0,0,0)"><path fill="none" stroke="black" paint-order="fill stroke markers" d=" M 5 0 L -5 0" stroke-miterlimit="10"/></g><g transform="translate(536.0125175079078,320.7215314610518) rotate(0,0,0)"><path fill="none" stroke="black" paint-order="fill stroke markers" d=" M 5 0 L -5 0" stroke-miterlimit="10"/></g><g transform="translate(633.5180070141655,317.9347860415842) rotate(0,0,0)"><path fill="none" stroke="black" paint-order="fill stroke markers" d=" M 5 0 L -5 0" stroke-miterlimit="10"/></g><g transform="translate(731.0234965204232,316.10453133317054) rotate(0,0,0)"><path fill="none" stroke="black" paint-order="fill stroke markers" d=" M 5 0 L -5 0" stroke-miterlimit="10"/></g><g transform="translate(828.5289860266812,310.5538076124698) rotate(0,0,0)"><path fill="none" stroke="black" paint-order="fill stroke markers" d=" M 5 0 L -5 0" stroke-miterlimit="10"/></g><g transform="translate(926.0344755329389,316.1052321126841) rotate(0,0,0)"><path fill="none" stroke="black" paint-order="fill stroke markers" d=" M 5 0 L -5 0" stroke-miterlimit="10"/></g><g transform="translate(1023.5399650391967,270.10578470857206) rotate(0,0,0)"><path fill="none" stroke="black" paint-order="fill stroke markers" d=" M 5 0 L -5 0" stroke-miterlimit="10"/></g><g transform="translate(1121.0454545454545,220.89157654030203) rotate(0,0,0)"><path fill="none" stroke="black" paint-order="fill stroke markers" d=" M 5 0 L -5 0" stroke-miterlimit="10"/></g><g><path fill="none" stroke="none"/><path fill="none" stroke="#5e4fa2" paint-order="fill stroke markers" d=" M 141.95454545454533 335.2298254095066 L 243.49604898913435 324.7640652364749 L 341.0015384953921 105.67348359755889 L 438.50702800164987 264.8355575668162 L 536.0125175079078 291.75621553479436 L 633.5180070141655 288.2332177197596 L 731.0234965204232 284.69568091066697 L 828.5289860266812 281.1471685864522 L 926.0344755329389 260.8612807793587 L 1023.5399650391967 132.0318245894765 L 1121.0454545454545 20.727272727272805" stroke-miterlimit="10"/></g><g><path fill="none" stroke="none"/><path fill="none" stroke="#3288bd" paint-order="fill stroke markers" d=" M 141.95454545454533 335.27272727272725 L 243.49604898913435 329.0768582689125 L 341.0015384953921 253.2315872996141 L 438.50702800164987 312.319056924774 L 536.0125175079078 322.7175450297609 L 633.5180070141655 320.20931198430026 L 731.0234965204232 318.5158042548769 L 828.5289860266812 314.8576793185986 L 926.0344755329389 318.59405825230584 L 1023.5399650391967 275.87963402363414 L 1121.0454545454545 226.8993309735061" stroke-miterlimit="10"/></g></g></g><g clip-path="url(#HxcIMRqwsQmH)"><g><g/><g><path fill="#ffffff" stroke="#e5e5e5" paint-order="fill stroke markers" d=" M 1063.28125 15 L 1160 15 L 1160 78 L 1063.28125 78 L 1063.28125 15 Z" fill-opacity="0.95" stroke-miterlimit="10" stroke-opacity="0.5"/><text fill="#444444" stroke="none" font-family="helvetica" font-size="10pt" font-style="normal" font-weight="normal" text-decoration="normal" x="1098.28125" y="35" text-anchor="start" dominant-baseline="central">Tally 12</text><g><path fill="none" stroke="#5e4fa2" paint-order="fill stroke markers" d=" M 1073.28125 35 L 1093.28125 35" stroke-miterlimit="10"/></g><text fill="#444444" stroke="none" font-family="helvetica" font-size="10pt" font-style="normal" font-weight="normal" text-decoration="normal" x="1098.28125" y="58" text-anchor="start" dominant-baseline="central">Tally 22</text><g><path fill="none" stroke="#3288bd" paint-order="fill stroke markers" d=" M 1073.28125 58 L 1093.28125 58" stroke-miterlimit="10"/></g></g></g></g><g><g fill="#444444"><path fill="none" stroke="black" paint-order="fill stroke markers" d=" M 93 351 L 1170 351" stroke-miterlimit="10"/><path fill="none" stroke="black" paint-order="fill stroke markers" d=" M 171 357 L 171 349" stroke-miterlimit="10"/><path fill="none" stroke="black" paint-order="fill stroke markers" d=" M 366 357 L 366 349" stroke-miterlimit="10"/><path fill="none" stroke="black" paint-order="fill stroke markers" d=" M 561 357 L 561 349" stroke-miterlimit="10"/><path fill="none" stroke="black" paint-order="fill stroke markers" d=" M 756 357 L 756 349" stroke-miterlimit="10"/><path fill="none" stroke="black" paint-order="fill stroke markers" d=" M 951 357 L 951 349" stroke-miterlimit="10"/><path fill="none" stroke="black" paint-order="fill stroke markers" d=" M 1146 357 L 1146 349" stroke-miterlimit="10"/><path fill="none" stroke="black" paint-order="fill stroke markers" d=" M 171 355 L 171 351" stroke-miterlimit="10"/><path fill="none" stroke="black" paint-order="fill stroke markers" d=" M 269 355 L 269 351" stroke-miterlimit="10"/><path fill="none" stroke="black" paint-order="fill stroke markers" d=" M 298 355 L 298 351" stroke-miterlimit="10"/><path fill="none" stroke="black" paint-order="fill stroke markers" d=" M 315 355 L 315 351" stroke-miterlimit="10"/><path fill="none" stroke="black" paint-order="fill stroke markers" d=" M 328 355 L 328 351" stroke-miterlimit="10"/><path fill="none" stroke="black" paint-order="fill stroke markers" d=" M 337 355 L 337 351" stroke-miterlimit="10"/><path fill="none" stroke="black" paint-order="fill stroke markers" d=" M 345 355 L 345 351" stroke-miterlimit="10"/><path fill="none" stroke="black" paint-order="fill stroke markers" d=" M 351 355 L 351 351" stroke-miterlimit="10"/><path fill="none" stroke="black" paint-order="fill stroke markers" d=" M 357 355 L 357 351" stroke-miterlimit="10"/><path fill="none" stroke="black" paint-order="fill stroke markers" d=" M 362 355 L 362 351" stroke-miterlimit="10"/><path fill="none" stroke="black" paint-order="fill stroke markers" d=" M 366 355 L 366 351" stroke-miterlimit="10"/><path fill="none" stroke="black" paint-order="fill stroke markers" d=" M 464 355 L 464 351" stroke-miterlimit="10"/><path fill="none" stroke="black" paint-order="fill stroke markers" d=" M 493 355 L 493 351" stroke-miterlimit="10"/><path fill="none" stroke="black" paint-order="fill stroke markers" d=" M 510 355 L 510 351" stroke-miterlimit="10"/><path fill="none" stroke="black" paint-order="fill stroke markers" d=" M 523 355 L 523 351" stroke-miterlimit="10"/><path fill="none" stroke="black" paint-order="fill stroke markers" d=" M 532 355 L 532 351" stroke-miterlimit="10"/><path fill="none" stroke="black" paint-order="fill stroke markers" d=" M 540 355 L 540 351" stroke-miterlimit="10"/><path fill="none" stroke="black" paint-order="fill stroke markers" d=" M 546 355 L 546 351" stroke-miterlimit="10"/><path fill="none" stroke="black" paint-order="fill stroke markers" d=" M 552 355 L 552 351" stroke-miterlimit="10"/><path fill="none" stroke="black" paint-order="fill stroke markers" d=" M 557 355 L 557 351" stroke-miterlimit="10"/><path fill="none" stroke="black" paint-order="fill stroke markers" d=" M 561 355 L 561 351" stroke-miterlimit="10"/><path fill="none" stroke="black" paint-order="fill stroke markers" d=" M 659 355 L 659 351" stroke-miterlimit="10"/><path fill="none" stroke="black" paint-order="fill stroke markers" d=" M 688 355 L 688 351" stroke-miterlimit="10"/><path fill="none" stroke="black" paint-order="fill stroke markers" d=" M 705 355 L 705 351" stroke-miterlimit="10"/><path fill="none" stroke="black" paint-order="fill stroke markers" d=" M 718 355 L 718 351" stroke-miterlimit="10"/><path fill="none" stroke="black" paint-order="fill stroke markers" d=" M 727 355 L 727 351" stroke-miterlimit="10"/><path fill="none" stroke="black" paint-order="fill stroke markers" d=" M 735 355 L 735 351" stroke-miterlimit="10"/><path fill="none" stroke="black" paint-order="fill stroke markers" d=" M 741 355 L 741 351" stroke-miterlimit="10"/><path fill="none" stroke="black" paint-order="fill stroke markers" d=" M 747 355 L 747 351" stroke-miterlimit="10"/><path fill="none" stroke="black" paint-order="fill stroke markers" d=" M 752 355 L 752 351" stroke-miterlimit="10"/><path fill="none" stroke="black" paint-order="fill stroke markers" d=" M 756 355 L 756 351" stroke-miterlimit="10"/><path fill="none" stroke="black" paint-order="fill stroke markers" d=" M 854 355 L 854 351" stroke-miterlimit="10"/><path fill="none" stroke="black" paint-order="fill stroke markers" d=" M 883 355 L 883 351" stroke-miterlimit="10"/><path fill="none" stroke="black" paint-order="fill stroke markers" d=" M 900 355 L 900 351" stroke-miterlimit="10"/><path fill="none" stroke="black" paint-order="fill stroke markers" d=" M 913 355 L 913 351" stroke-miterlimit="10"/><path fill="none" stroke="black" paint-order="fill stroke markers" d=" M 922 355 L 922 351" stroke-miterlimit="10"/><path fill="none" stroke="black" paint-order="fill stroke markers" d=" M 930 355 L 930 351" stroke-miterlimit="10"/><path fill="none" stroke="black" paint-order="fill stroke markers" d=" M 936 355 L 936 351" stroke-miterlimit="10"/><path fill="none" stroke="black" paint-order="fill stroke markers" d=" M 942 355 L 942 351" stroke-miterlimit="10"/><path fill="none" stroke="black" paint-order="fill stroke markers" d=" M 947 355 L 947 351" stroke-miterlimit="10"/><path fill="none" stroke="black" paint-order="fill stroke markers" d=" M 951 355 L 951 351" stroke-miterlimit="10"/><path fill="none" stroke="black" paint-order="fill stroke markers" d=" M 1049 355 L 1049 351" stroke-miterlimit="10"/><path fill="none" stroke="black" paint-order="fill stroke markers" d=" M 1078 355 L 1078 351" stroke-miterlimit="10"/><path fill="none" stroke="black" paint-order="fill stroke markers" d=" M 1095 355 L 1095 351" stroke-miterlimit="10"/><path fill="none" stroke="black" paint-order="fill stroke markers" d=" M 1108 355 L 1108 351" stroke-miterlimit="10"/><path fill="none" stroke="black" paint-order="fill stroke markers" d=" M 1117 355 L 1117 351" stroke-miterlimit="10"/><path fill="none" stroke="black" paint-order="fill stroke markers" d=" M 1125 355 L 1125 351" stroke-miterlimit="10"/><path fill="none" stroke="black" paint-order="fill stroke markers" d=" M 1131 355 L 1131 351" stroke-miterlimit="10"/><path fill="none" stroke="black" paint-order="fill stroke markers" d=" M 1137 355 L 1137 351" stroke-miterlimit="10"/><path fill="none" stroke="black" paint-order="fill stroke markers" d=" M 1142 355 L 1142 351" stroke-miterlimit="10"/><path fill="" stroke="black" paint-order="fill stroke markers" d=" M 1146 355 L 1146 351" stroke-miterlimit="10"/><g transform="translate(171,362) rotate(0,0,0)"><text fill="" stroke="none" font-family="helvetica" font-size="8pt" font-style="normal" font-weight="normal" text-decoration="normal" x="0" y="0" text-anchor="middle" dominant-baseline="hanging">10^-9</text><g transform="rotate(0,0,0) translate(-171,-362) translate(366,362) rotate(0,0,0)"><text fill="" stroke="none" font-family="helvetica" font-size="8pt" font-style="normal" font-weight="normal" text-decoration="normal" x="0" y="0" text-anchor="middle" dominant-baseline="hanging">10^-7</text><g transform="rotate(0,0,0) translate(-366,-362) translate(561,362) rotate(0,0,0)"><text fill="" stroke="none" font-family="helvetica" font-size="8pt" font-style="normal" font-weight="normal" text-decoration="normal" x="0" y="0" text-anchor="middle" dominant-baseline="hanging">10^-5</text><g transform="rotate(0,0,0) translate(-561,-362) translate(756,362) rotate(0,0,0)"><text fill="" stroke="none" font-family="helvetica" font-size="8pt" font-style="normal" font-weight="normal" text-decoration="normal" x="0" y="0" text-anchor="middle" dominant-baseline="hanging">10^-3</text><g transform="rotate(0,0,0) translate(-756,-362) translate(951,362) rotate(0,0,0)"><text fill="" stroke="none" font-family="helvetica" font-size="8pt" font-style="normal" font-weight="normal" text-decoration="normal" x="0" y="0" text-anchor="middle" dominant-baseline="hanging">10^-1</text><g transform="rotate(0,0,0) translate(-951,-362) translate(1146,362) rotate(0,0,0)"><text fill="" stroke="none" font-family="helvetica" font-size="8pt" font-style="normal" font-weight="normal" text-decoration="normal" x="0" y="0" text-anchor="middle" dominant-baseline="hanging">10^1</text><g transform="rotate(0,0,0) translate(-1146,-362) translate(632,382) rotate(0,0,0)"><text fill="" stroke="none" font-family="helvetica" font-size="10pt" font-style="italic" font-weight="normal" text-decoration="normal" x="0" y="0" text-anchor="middle" dominant-baseline="hanging">Energy /MeV</text><g transform="rotate(0,0,0) translate(-632,-382)"/></g></g></g></g></g></g></g></g><g fill="#444444"><path fill="none" stroke="black" paint-order="fill stroke markers" d=" M 93 351 L 93 5" stroke-miterlimit="10"/><path fill="none" stroke="black" paint-order="fill stroke markers" d=" M 87 335 L 95 335" stroke-miterlimit="10"/><path fill="none" stroke="black" paint-order="fill stroke markers" d=" M 87 264 L 95 264" stroke-miterlimit="10"/><path fill="none" stroke="black" paint-order="fill stroke markers" d=" M 87 193 L 95 193" stroke-miterlimit="10"/><path fill="none" stroke="black" paint-order="fill stroke markers" d=" M 87 122 L 95 122" stroke-miterlimit="10"/><path fill="none" stroke="black" paint-order="fill stroke markers" d=" M 87 50 L 95 50" stroke-miterlimit="10"/><path fill="none" stroke="black" paint-order="fill stroke markers" d=" M 89 350 L 93 350" stroke-miterlimit="10"/><path fill="none" stroke="black" paint-order="fill stroke markers" d=" M 89 335 L 93 335" stroke-miterlimit="10"/><path fill="none" stroke="black" paint-order="fill stroke markers" d=" M 89 321 L 93 321" stroke-miterlimit="10"/><path fill="none" stroke="black" paint-order="fill stroke markers" d=" M 89 307 L 93 307" stroke-miterlimit="10"/><path fill="none" stroke="black" paint-order="fill stroke markers" d=" M 89 293 L 93 293" stroke-miterlimit="10"/><path fill="none" stroke="black" paint-order="fill stroke markers" d=" M 89 278 L 93 278" stroke-miterlimit="10"/><path fill="none" stroke="black" paint-order="fill stroke markers" d=" M 89 264 L 93 264" stroke-miterlimit="10"/><path fill="none" stroke="black" paint-order="fill stroke markers" d=" M 89 250 L 93 250" stroke-miterlimit="10"/><path fill="none" stroke="black" paint-order="fill stroke markers" d=" M 89 236 L 93 236" stroke-miterlimit="10"/><path fill="none" stroke="black" paint-order="fill stroke markers" d=" M 89 221 L 93 221" stroke-miterlimit="10"/><path fill="none" stroke="black" paint-order="fill stroke markers" d=" M 89 207 L 93 207" stroke-miterlimit="10"/><path fill="none" stroke="black" paint-order="fill stroke markers" d=" M 89 193 L 93 193" stroke-miterlimit="10"/><path fill="none" stroke="black" paint-order="fill stroke markers" d=" M 89 179 L 93 179" stroke-miterlimit="10"/><path fill="none" stroke="black" paint-order="fill stroke markers" d=" M 89 164 L 93 164" stroke-miterlimit="10"/><path fill="none" stroke="black" paint-order="fill stroke markers" d=" M 89 150 L 93 150" stroke-miterlimit="10"/><path fill="none" stroke="black" paint-order="fill stroke markers" d=" M 89 136 L 93 136" stroke-miterlimit="10"/><path fill="none" stroke="black" paint-order="fill stroke markers" d=" M 89 122 L 93 122" stroke-miterlimit="10"/><path fill="none" stroke="black" paint-order="fill stroke markers" d=" M 89 107 L 93 107" stroke-miterlimit="10"/><path fill="none" stroke="black" paint-order="fill stroke markers" d=" M 89 93 L 93 93" stroke-miterlimit="10"/><path fill="none" stroke="black" paint-order="fill stroke markers" d=" M 89 79 L 93 79" stroke-miterlimit="10"/><path fill="none" stroke="black" paint-order="fill stroke markers" d=" M 89 65 L 93 65" stroke-miterlimit="10"/><path fill="none" stroke="black" paint-order="fill stroke markers" d=" M 89 50 L 93 50" stroke-miterlimit="10"/><path fill="none" stroke="black" paint-order="fill stroke markers" d=" M 89 36 L 93 36" stroke-miterlimit="10"/><path fill="none" stroke="black" paint-order="fill stroke markers" d=" M 89 22 L 93 22" stroke-miterlimit="10"/><path fill="" stroke="black" paint-order="fill stroke markers" d=" M 89 8 L 93 8" stroke-miterlimit="10"/><g transform="translate(82,335) rotate(0,0,0)"><text fill="" stroke="none" font-family="helvetica" font-size="8pt" font-style="normal" font-weight="normal" text-decoration="normal" x="0" y="0" text-anchor="end" dominant-baseline="central">0.000e+0</text><g transform="rotate(0,0,0) translate(-82,-335) translate(82,264) rotate(0,0,0)"><text fill="" stroke="none" font-family="helvetica" font-size="8pt" font-style="normal" font-weight="normal" text-decoration="normal" x="0" y="0" text-anchor="end" dominant-baseline="central">5.000e-5</text><g transform="rotate(0,0,0) translate(-82,-264) translate(82,193) rotate(0,0,0)"><text fill="" stroke="none" font-family="helvetica" font-size="8pt" font-style="normal" font-weight="normal" text-decoration="normal" x="0" y="0" text-anchor="end" dominant-baseline="central">1.000e-4</text><g transform="rotate(0,0,0) translate(-82,-193) translate(82,122) rotate(0,0,0)"><text fill="" stroke="none" font-family="helvetica" font-size="8pt" font-style="normal" font-weight="normal" text-decoration="normal" x="0" y="0" text-anchor="end" dominant-baseline="central">1.500e-4</text><g transform="rotate(0,0,0) translate(-82,-122) translate(82,50) rotate(0,0,0)"><text fill="" stroke="none" font-family="helvetica" font-size="8pt" font-style="normal" font-weight="normal" text-decoration="normal" x="0" y="0" text-anchor="end" dominant-baseline="central">2.000e-4</text><g transform="rotate(0,0,0) translate(-82,-50) translate(17,178) rotate(-90,0,0)"><text fill="" stroke="none" font-family="helvetica" font-size="10pt" font-style="italic" font-weight="normal" text-decoration="normal" x="0" y="0" text-anchor="middle" dominant-baseline="alphabetic">Flux (1/cm^2)</text><g transform="rotate(90,0,0) translate(-17,-178)"/></g></g></g></g></g></g></g></g></g></g></svg>