<svg version="1.1" xmlns="http://www.w3.org/2000/svg" xmlns:xlink="http://www.w3.org/1999/xlink" width="1200" height="400" style="width: 1200px; height: 400px;"><defs><clipPath id="KHOWpTvDStMk"><path fill="none" stroke="none" d=" M 53 5 L 1170 5 L 1170 351 L 53 351 L 53 5 Z"/></clipPath><clipPath id="gsTTPHNToecN"><path fill="none" stroke="none" d=" M 53 5 L 1170 5 L 1170 351 L 53 351 L 53 5 Z"/></clipPath></defs><g><g transform="scale(1,1) translate(0.5,0.5)"><rect fill="#FFFFFF" stroke="none" x="0" y="0" width="1200" height="400"/><rect fill="#ffffff" stroke="none" x="0" y="0" width="1200" height="400"/><rect fill="#FFFFFF" stroke="none" x="53" y="5" width="1117" height="346"/><rect fill="#ffffff" stroke="none" x="53" y="5" width="1117" height="346"/><g><rect fill="none" stroke="#e5e5e5" x="53" y="5" width="1117" height="346" stroke-miterlimit="10"/></g><g clip-path="url(#KHOWpTvDStMk)"><g><g><path fill="none" stroke="#e5e5e5" paint-order="fill stroke markers" d=" M 104 351 L 104 5" stroke-miterlimit="10"/><path fill="none" stroke="#e5e5e5" paint-order="fill stroke markers" d=" M 577 351 L 577 5" stroke-miterlimit="10"/><path fill="none" stroke="#e5e5e5" paint-order="fill stroke markers" d=" M 1050 351 L 1050 5" stroke-miterlimit="10"/></g><g><path fill="none" stroke="#e5e5e5" paint-order="fill stroke markers" d=" M 53 335 L 1170 335" stroke-miterlimit="10"/><path fill="none" stroke="#e5e5e5" paint-order="fill stroke markers" d=" M 53 272 L 1170 272" stroke-miterlimit="10"/><path fill="none" stroke="#e5e5e5" paint-order="fill stroke markers" d=" M 53 208 L 1170 208" stroke-miterlimit="10"/><path fill="none" stroke="#e5e5e5" paint-order="fill stroke markers" d=" M 53 144 L 1170 144" stroke-miterlimit="10"/><path fill="none" stroke="#e5e5e5" paint-order="fill stroke markers" d=" M 53 80 L 1170 80" stroke-miterlimit="10"/><path fill="none" stroke="#e5e5e5" paint-order="fill stroke markers" d=" M 53 16 L 1170 16" stroke-miterlimit="10"/></g><g><path fill="none" stroke="none"/><path fill="none" stroke="#1f77b4" paint-order="fill stroke markers" d=" M 103.77272727272734 185.96868383555392 L 104.78919828919831 185.62456191168386 L 105.80566930566928 185.2797854075264 L 106.82214032214034 184.93435424389 L 107.83861133861132 184.5882683535881 L 108.85508235508237 184.24152768156608 L 109.87155337155343 183.8941321850297 L 110.8880243880244 183.54608183357362 L 111.90449540449546 183.19737660931207 L 112.92096642096644 182.8480165070098 L 113.93743743743741 182.4980015342147 L 114.95390845390847 182.14733171139125 L 115.97037947037944 181.79600707205518 L 116.9868504868505 181.44402766290918 L 118.00332150332157 181.09139354397973 L 119.01979251979255 180.73810478875546 L 120.03626353626352 180.38416148432609 L 121.05273455273458 180.0295637315229 L 122.06920556920555 179.6743116450603 L 123.08567658567661 179.3184053536786 L 124.10214760214758 178.9618450002878 L 125.11861861861865 178.60463074211296 L 126.13508963508961 178.24676275084033 L 127.15156065156069 177.888241212765 L 128.16803166803174 177.52906632893976 L 129.18450268450272 177.16923831532492 L 130.20097370097378 176.80875740293976 L 131.21744471744475 176.44762383801512 L 132.23391573391572 176.08583788214685 L 133.25038675038678 175.72339981245125 L 134.26685776685775 175.36030992172124 L 135.28332878332884 174.9965685185839 L 136.29979979979987 174.63217592765955 L 137.31627081627084 174.26713248972194 L 138.3327418327419 173.9014385618598 L 139.3492128492129 173.53509451763978 L 140.36568386568388 173.16810074727053 L 141.3821548821549 172.80045765776836 L 142.39862589862588 172.4321656731243 L 143.41509691509697 172.06322523447207 L 144.43156793156794 171.693636800258 L 145.44803894803897 171.32340084641203 L 146.46450996450994 170.9525178665202 L 147.48098098098103 170.58098837199822 L 148.497451997452 170.20881289226713 L 149.51392301392303 169.8359919749297 L 150.53039403039404 169.46252618594866 L 151.5468650468651 169.0884161098261 L 152.56333606333615 168.7136623497849 L 153.57980707980713 168.33826552795077 L 154.59627809627807 167.96222628553633 L 155.61274911274916 167.58554528302656 L 156.62922012922013 167.20822320036572 L 157.6456911456912 166.830260737146 L 158.66216216216216 166.45165861279688 L 159.67863317863313 166.07241756677726 L 160.6951041951042 165.6925383587679 L 161.71157521157517 165.31202176886652 L 162.72804622804622 164.93086859778325 L 163.74451724451728 164.54907966703897 L 164.76098826098826 164.1666558191638 L 165.77745927745934 163.78359791789867 L 166.79393029393037 163.3999068483971 L 167.81040131040132 163.0155835174296 L 168.82687232687232 162.63062885358912 L 169.84334334334335 162.2450438074985 L 170.85981435981444 161.858829352019 L 171.87628537628544 161.4719864824612 L 172.89275639275644 161.08451621679708 L 173.9092274092274 160.69641959587383 L 174.9256984256985 160.30769768362944 L 175.9421694421695 159.91835156730988 L 176.95864045864047 159.52838235768812 L 177.97511147511148 159.1377911892847 L 178.9915824915825 158.74657922059006 L 180.00805350805354 158.35474763428886 L 181.02452452452454 157.96229763748536 L 182.04099554099557 157.5692304619316 L 183.05746655746663 157.17554736425623 L 184.0739375739376 156.78124962619603 L 185.09040859040863 156.3863385548284 L 186.10687960687963 155.9908154828065 L 187.12335062335063 155.59468176859556 L 188.1398216398217 155.19793879671107 L 189.15629265629272 154.80058797795925 L 190.17276367276375 154.40263074967885 L 191.1892346892347 154.00406857598506 L 192.20570570570578 153.60490294801502 L 193.2221767221768 153.20513538417566 L 194.23864773864778 152.80476743039318 L 195.2551187551188 152.40380066036414 L 196.2715897715898 152.00223667580886 L 197.28806078806082 151.60007710672662 L 198.30453180453176 151.1973236116527 L 199.3210028210029 150.79397787791746 L 200.3374738374739 150.3900416219072 L 201.35394485394488 149.98551658932718 L 202.3704158704159 149.5804045554665 L 203.3868868868869 149.174707325465 L 204.40335790335794 148.76842673458202 L 205.41982891982894 148.36156464846746 L 206.43629993630003 147.95412296343437 L 207.452770952771 147.54610360673416 L 208.469241969242 147.13750853683328 L 209.485712985713 146.72833974369223 L 210.50218400218404 146.3185992490467 L 211.51865501865507 145.9082891066905 L 212.53512603512607 145.49741140276078 L 213.55159705159707 145.0859682560253 L 214.56806806806813 144.67396181817173 L 215.58453908453913 144.26139427409896 L 216.6010101010101 143.848267842211 L 217.61748111748116 143.43458477471205 L 218.63395213395216 143.02034735790502 L 219.6504231504232 142.60555791249098 L 220.66689416689422 142.19021879387125 L 221.68336518336523 141.7743323924521 L 222.6998361998363 141.3579011339508 L 223.7163072163073 140.94092747970433 L 224.73277823277832 140.52341392698042 L 225.7492492492493 140.1053630092902 L 226.7657202657203 139.68677729670355 L 227.78219128219135 139.267659396167 L 228.79866229866235 138.84801195182285 L 229.81513331513335 138.42783764533138 L 230.83160433160438 138.0071391961949 L 231.8480753480754 137.58591936208452 L 232.8645463645464 137.16418093916846 L 233.88101738101744 136.74192676244323 L 234.8974883974884 136.31915970606696 L 235.91395941395942 135.89588268369502 L 236.93043043043048 135.47209864881768 L 237.9469014469015 135.04781059510057 L 238.9633724633725 134.62302155672697 L 239.97984347984354 134.197734608743 L 240.9963144963146 133.7719528674043 L 242.0127855127856 133.34567949052627 L 243.02925652925663 132.91891767783517 L 244.04572754572763 132.4916706713229 L 245.06219856219863 132.06394175560376 L 246.07866957866963 131.63573425827286 L 247.09514059514063 131.207051550268 L 248.1116116116116 130.77789704623342 L 249.1280826280827 130.3482742048857 L 250.14455364455367 129.91818652938284 L 251.16102466102467 129.4876375676946 L 252.1774956774957 129.05663091297657 L 253.19396669396673 128.62517020394566 L 254.2104377104378 128.1932591252586 L 255.2269087269088 127.76090140789253 L 256.2433797433798 127.32810082952815 L 257.25985075985085 126.89486121493545 L 258.27632177632177 126.46118643636177 L 259.29279279279285 126.02708041392233 L 260.30926380926394 125.5925471159934 L 261.3257348257349 125.15759055960737 L 262.3422058422059 124.72221481085114 L 263.3586768586769 124.28642398526654 L 264.37514787514795 123.85022224825278 L 265.391618891619 123.41361381547259 L 266.40808990808995 122.97660295325949 L 267.424560924561 122.5391939790286 L 268.44103194103195 122.10139126168934 L 269.457502957503 121.66319922206102 L 270.473973973974 121.2246223332906 L 271.490444990445 120.78566512127301 L 272.5069160069161 120.34633216507456 L 273.52338702338704 119.9066280973577 L 274.53985803985813 119.46655760480971 L 275.5563290563291 119.02612542857236 L 276.5728000728002 118.5853363646757 L 277.58927108927116 118.14419526447296 L 278.6057421057422 117.70270703507902 L 279.6222131222132 117.26087663981036 L 280.6386841386842 116.81870909862874 L 281.6551551551552 116.37620948858645 L 282.67162617162626 115.93338294427423 L 283.68809718809723 115.49023465827227 L 284.7045682045682 115.0467698816029 L 285.7210392210393 114.60299392418631 L 286.73751023751026 114.15891215529882 L 287.7539812539813 113.71453000403332 L 288.7704522704523 113.26985295976237 L 289.7869232869233 112.82488657260382 L 290.8033943033943 112.37963645388896 L 291.81986531986536 111.93410827663297 L 292.8363363363364 111.48830777600801 L 293.8528073528074 111.04224074981892 L 294.8692783692785 110.59591305898076 L 295.88574938574953 110.14933062799986 L 296.90222040222045 109.70249944545617 L 297.91869141869154 109.25542556448892 L 298.9351624351625 108.80811510328425 L 299.95163345163354 108.36057424556557 L 300.9681044681045 107.91280924108614 L 301.98457548457554 107.46482640612388 L 303.0010465010465 107.01663212397926 L 304.0175175175176 106.56823284547471 L 305.0339885339886 106.11963508945703 L 306.0504595504596 105.67084544330203 L 307.0669305669306 105.22187056342116 L 308.0834015834017 104.77271717577102 L 309.09987259987264 104.32339207636508 L 310.1163436163437 103.87390213178716 L 311.1328146328147 103.4242542797079 L 312.14928564928573 102.97445552940306 L 313.16575666575676 102.52451296227483 L 314.1822276822278 102.07443373237376 L 315.1986986986988 101.62422506692508 L 316.2151697151698 101.17389426685554 L 317.23164073164077 100.72344870732283 L 318.2481117481118 100.27289583824799 L 319.2645827645828 99.82224318484896 L 320.28105378105386 99.37149834817643 L 321.29752479752483 98.92066900565283 L 322.3139958139959 98.46976291161155 L 323.3304668304669 98.01878789784007 L 324.3469378469379 97.56775187412401 L 325.3634088634089 97.1166628287935 L 326.37987987988 96.66552882927144 L 327.39635089635095 96.21435802262411 L 328.412821912822 95.76315863611327 L 329.429292929293 95.31193897775017 L 330.4457639457641 94.86070743685167 L 331.4622349622351 94.40947248459821 L 332.47870597870605 93.95824267459344 L 333.49517699517713 93.50702664342538 L 334.5116480116481 93.05583311123016 L 335.5281190281191 92.60467088225647 L 336.54459004459017 92.15354884543225 L 337.56106106106114 91.70247597493304 L 338.5775320775321 91.25146133075174 L 339.5940030940032 90.80051405926972 L 340.61047411047423 90.34964339383029 L 341.62694512694526 89.89885865531267 L 342.6434161434163 89.44816925270777 L 343.65988715988726 88.99758468369564 L 344.67635817635824 88.54711453522413 L 345.69282919282927 88.09676848408827 L 346.70930020930024 87.64655629751235 L 347.7257712257713 87.19648783373123 L 348.74224224224236 86.74657304257448 L 349.7587132587133 86.29682196605123 L 350.77518427518436 85.84724473893533 L 351.7916552916554 85.39785158935254 L 352.80812630812636 84.94865283936804 L 353.8245973245974 84.4996589055751 L 354.8410683410684 84.05088029968451 L 355.8575393575394 83.60232762911488 L 356.8740103740105 83.15401159758366 L 357.8904813904815 82.7059430056988 L 358.9069524069525 82.25813275155099 L 359.9234234234235 81.81059183130648 L 360.93989443989454 81.36333133980054 L 361.9563654563655 80.91636247113115 L 362.97283647283655 80.469696519253 L 363.9893074893076 80.02334487857203 L 365.0057785057786 79.57731904453988 L 366.02224952224964 79.13163061424882 L 367.0387205387206 78.68629128702639 L 368.0551915551916 78.24131286503052 L 369.0716625716627 77.79670725384364 L 370.08813358813364 77.35248646306815 L 371.1046046046047 76.90866260692002 L 372.1210756210757 76.46524790482295 L 373.1375466375467 76.0222546820026 L 374.1540176540177 75.5796953700787 L 375.1704886704888 75.13758250765841 L 376.18695968695977 74.69592874092803 L 377.20343070343074 74.25474682424391 L 378.2199017199018 73.8140496207231 L 379.2363727363728 73.37385010283248 L 380.2528437528439 72.93416135297701 L 381.2693147693149 72.49499656408756 L 382.2857857857859 72.05636904020594 L 383.3022568022569 71.61829219707033 L 384.3187278187279 71.18077956269809 L 385.3351988351989 70.74384477796781 L 386.3516698516699 70.30750159719872 L 387.368140868141 69.8717638887299 L 388.384611884612 69.43664563549578 L 389.401082901083 69.00216093560118 L 390.4175539175541 68.56832400289352 L 391.43402493402505 68.1351491675328 L 392.450495950496 67.7026508765598 L 393.46696696696705 67.270843694461 L 394.483437983438 66.83974230373167 L 395.4999089999091 66.40936150543592 L 396.5163800163801 65.97971621976404 L 397.5328510328511 65.5508214865867 L 398.5493220493222 65.12269246600613 L 399.5657930657932 64.69534443890439 L 400.58226408226415 64.26879280748756 L 401.5987350987352 63.84305309582737 L 402.6152061152062 63.41814095039848 L 403.63167713167724 62.994072140612104 L 404.64814814814827 62.570862559345926 L 405.66461916461924 62.14852822346978 L 406.6810901810903 61.72708527436697 L 407.69756119756136 61.30654997845147 L 408.71403221403233 60.88693872768039 L 409.73050323050336 60.4682680400619 L 410.74697424697433 60.050554560157934 L 411.76344526344536 59.633815059582275 L 412.77991627991634 59.21806643749346 L 413.7963872963874 58.80332572108159 L 414.8128583128584 58.38961006605052 L 415.8293293293295 57.97693675709411 L 416.84580034580046 57.56532320836595 L 417.86227136227143 57.15478696394371 L 418.87874237874246 56.745345698287224 L 419.8952133952135 56.33701721668933 L 420.91168441168446 55.929819455721315 L 421.9281554281555 55.52377048367032 L 422.9446264446265 55.11888850097057 L 423.9610974610976 54.715191840627085 L 424.97756847756864 54.31269896863182 L 425.9940394940396 53.91142848437238 L 427.0105105105106 53.51139912103292 L 428.0269815269816 53.11262974598708 L 429.04345254345264 52.71513936118225 L 430.0599235599236 52.31894710351577 L 431.07639457639465 51.92407224520235 L 432.09286559286573 51.53053419413271 L 433.1093366093367 51.138352494222545 L 434.1258076258078 50.747546825753204 L 435.14227864227877 50.35813700570134 L 436.15874965874974 49.97014298805993 L 437.17522067522077 49.58358486414852 L 438.1916916916918 49.19848286291415 L 439.2081627081628 48.8148573512201 L 440.22463372463375 48.43272883412527 L 441.24110474110483 48.05211795515203 L 442.25757575757586 47.67304549654261 L 443.2740467740469 47.29553237950444 L 444.29051779051787 46.91959966444256 L 445.3069888069889 46.54526855118172 L 446.32345982345987 46.17256037917434 L 447.3399308399309 45.80149662769696 L 448.3564018564019 45.43209891603368 L 449.372872872873 45.064389003645715 L 450.38934388934405 44.69838879032898 L 451.405814905815 44.33412031635561 L 452.42228592228605 43.97160576260438 L 453.438756938757 43.61086745067411 L 454.45522795522805 43.2519278429844 L 455.4716989716991 42.89480954286046 L 456.48816998817006 42.53953529460301 L 457.50464100464114 42.186127983542576 L 458.5211120211122 41.83461063607837 L 459.53758303758315 41.48500641970071 L 460.55405405405423 41.137338642996895 L 461.5705250705252 40.791630755640426 L 462.58699608699624 40.44790634836363 L 463.6034671034672 40.106189152911725 L 464.6199381199382 39.766503041981196 L 465.6364091364092 39.428872029137494 L 466.65288015288024 39.09332026871607 L 467.6693511693513 38.75987205570476 L 468.68582218582225 38.42855182560618 L 469.70229320229333 38.0993841542811 L 470.71876421876436 37.772393757772306 L 471.73523523523534 37.447605492107925 L 472.7517062517063 37.12504435308449 L 473.76817726817734 36.80473547602924 L 474.7846482846485 36.48670413554089 L 475.80111930111946 36.17097574520909 L 476.8175903175905 35.8575758573125 L 477.83406133406146 35.54653016249267 L 478.8505323505325 35.23786448940791 L 479.86700336700346 34.93160480436177 L 480.88347438347444 34.627777210909244 L 481.8999453999455 34.32640794943927 L 482.91641641641644 34.02752339673168 L 483.9328874328876 33.73115006549176 L 484.94935844935856 33.43731460385732 L 485.9658294658296 33.146043794882246 L 486.9823004823007 32.85736455599317 L 487.9987714987716 32.571303938420556 L 489.01524251524256 32.28788912660252 L 490.03171353171365 32.00714743756191 L 491.0481845481846 31.729106320256562 L 492.0646555646557 31.45379335490037 L 493.0811265811267 31.181236252257065 L 494.0975975975977 30.911462852904947 L 495.1140686140688 30.644501126472562 L 496.1305396305398 30.380379170844662 L 497.14701064701075 30.11912521133786 L 498.1634816634818 29.860767599847065 L 499.17995267995275 29.60533481395919 L 500.19642369642384 29.352855456037275 L 501.2128947128948 29.10335825227145 L 502.2293657293659 28.85687205169893 L 503.2458367458369 28.613425825190518 L 504.2623077623079 28.373048664403996 L 505.2787787787789 28.135769780704265 L 506.2952497952499 27.901618504049964 L 507.3117208117209 27.670624281844425 L 508.328191828192 27.44281667775232 L 509.34466284466293 27.21822537048172 L 510.361133861134 26.996880152528604 L 511.377604877605 26.778810928886458 L 512.394075894076 26.564047715718516 L 513.410546910547 26.3526206389933 L 514.427017927018 26.14455993308121 L 515.443488943489 25.93989593931434 L 516.4599599599601 25.738659104507235 L 517.4764309764312 25.54087997943759 L 518.4929019929021 25.346589217288795 L 519.5093730093731 25.155817572051603 L 520.5258440258442 24.968595896885233 L 521.5423150423151 24.784955142437468 L 522.5587860587862 24.604926355124178 L 523.5752570752572 24.428540675365184 L 524.5917280917282 24.2558293357788 L 525.6081991081992 24.08682365933413 L 526.6246701246703 23.92155505745768 L 527.6411411411412 23.76005502809869 L 528.6576121576123 23.602355153748363 L 529.6740831740833 23.448487099415047 L 530.6905541905544 23.29848261055389 L 531.7070252070254 23.15237351095044 L 532.7234962234963 23.01019170055895 L 533.7399672399673 22.87196915329247 L 534.7564382564385 22.73773791476782 L 535.7729092729094 22.607530100000247 L 536.7893802893805 22.48137789105249 L 537.8058513058514 22.359313534633486 L 538.8223223223224 22.24136933964934 L 539.8387933387935 22.12757767470316 L 540.8552643552645 22.017970965547136 L 541.8717353717354 21.912581692481695 L 542.8882063882065 21.811442387705654 L 543.9046774046776 21.714585632614558 L 544.9211484211486 21.622044055046274 L 545.9376194376196 21.533850326476113 L 546.9540904540905 21.450037159156977 L 547.9705614705617 21.370637303209435 L 548.9870324870326 21.295683543654718 L 550.0035035035037 21.22520869739691 L 551.0199745199748 21.159245610148616 L 552.0364455364456 21.097827153303115 L 553.0529165529167 21.04098622074997 L 554.0693875693877 20.988755725636793 L 555.0858585858587 20.941168597072874 L 556.1023296023297 20.89825777677879 L 557.1188006188008 20.86005621567608 L 558.1352716352717 20.826596870423316 L 559.1517426517428 20.797912699891242 L 560.1682136682139 20.77403666158267 L 561.1846846846848 20.755001707992164 L 562.2011557011558 20.740840782907526 L 563.2176267176269 20.73158681765318 L 564.2340977340979 20.727272727272748 L 565.2505687505688 20.72793140665351 L 566.2670397670399 20.733595726588817 L 567.2835107835109 20.74429852978244 L 568.2999817999819 20.76007262679059 L 569.316452816453 20.780950791903763 L 570.3329238329239 20.806965758967294 L 571.349394849395 20.83815021714048 L 572.365865865866 20.87453680659337 L 573.382336882337 20.91615811414266 L 574.3988078988081 20.963046668824347 L 575.4152789152791 21.01523493740433 L 576.4317499317501 21.072755319826456 L 577.448220948221 21.135640144597744 L 578.4646919646921 21.20392166410977 L 579.4811629811632 21.27763204989833 L 580.4976339976342 21.356803387837658 L 581.5141050141052 21.441467673273564 L 582.5305760305762 21.531656806090268 L 583.5470470470473 21.627402585715743 L 584.5635180635182 21.72873670606168 L 585.5799890799892 21.835690750400033 L 586.5964600964602 21.94829618617547 L 587.6129311129313 22.06658435975396 L 588.6294021294023 22.19058649110667 L 589.6458731458733 22.320333668430237 L 590.6623441623443 22.455856842702303 L 591.6788151788154 22.597186822173853 L 592.6952861952864 22.74435426679645 L 593.7117572117573 22.89738968258615 L 594.7282282282283 23.056323415923202 L 595.7446992446993 23.22118564778765 L 596.7611702611705 23.392006387931872 L 597.7776412776415 23.568815468988646 L 598.7941122941124 23.75164254051657 L 599.8105833105835 23.940517062981655 L 600.8270543270546 24.1354683016761 L 601.8435253435256 24.336525320574765 L 602.8599963599966 24.54371697612794 L 603.8764673764675 24.757071910992693 L 604.8929383929385 24.976618547702003 L 605.9094094094096 25.20238508227237 L 606.9258804258806 25.434399477750162 L 607.9423514423515 25.672689457696094 L 608.9588224588226 25.91728249961102 L 609.9752934752936 26.168205828299847 L 610.9917644917647 26.42548640917721 L 612.0082355082357 26.689150941512537 L 613.0247065247066 26.959225851618044 L 614.0411775411776 27.235737285977677 L 615.0576485576487 27.51871110431904 L 616.0741195741198 27.808172872628063 L 617.0905905905908 28.10414785610726 L 618.1070616070618 28.406661012079383 L 619.1235326235328 28.71573698283487 L 620.1400036400038 29.031400088426324 L 621.1564746564749 29.35367431940864 L 622.172945672946 29.682583329527063 L 623.1894166894168 30.018150428353408 L 624.2058877058879 30.360398573871123 L 625.2223587223589 30.70935036501095 L 626.2388297388298 31.06502803413639 L 627.2553007553009 31.427453439482463 L 628.2717717717719 31.796648057546292 L 629.2882427882429 32.172632975431895 L 630.304713804714 32.555428883150284 L 631.321184821185 32.945056065875406 L 632.3376558376559 33.34153439615744 L 633.3541268541271 33.74488332609474 L 634.3705978705981 34.15512187946473 L 635.3870688870691 34.57226864381704 L 636.40353990354 34.996341762528004 L 637.4200109200111 35.4273589268185 L 638.4364819364821 35.86533736773839 L 639.4529529529532 36.31029384811495 L 640.4694239694243 36.762244654471715 L 641.4858949858951 37.221205588915154 L 642.5023660023662 37.68719196099289 L 643.5188370188372 38.16021857952404 L 644.5353080353082 38.640299744404444 L 645.5517790517791 39.127449238388124 L 646.5682500682502 39.62168031884431 L 647.5847210847211 40.12300570949617 L 648.6011921011923 40.63143759213989 L 649.6176631176633 41.1469875983467 L 650.6341341341342 41.66966680114939 L 651.6506051506053 42.19948570671761 L 652.6670761670764 42.73645424601858 L 653.6835471835474 43.28058176647352 L 654.7000182000183 43.831877023603 L 655.7164892164894 44.390348172668894 L 656.7329602329604 44.95600276031462 L 657.7494312494314 45.52884771620319 L 658.7659022659025 46.10888934465885 L 659.7823732823734 46.696133316311204 L 660.7988442988445 47.29058465974697 L 661.8153153153155 47.89224775317069 L 662.8317863317865 48.50112631607567 L 663.8482573482574 49.11722340093013 L 664.8647283647285 49.74054138487895 L 665.8811993811995 50.37108196146477 L 666.8976703976705 51.00884613237071 L 667.9141414141416 51.65383419918675 L 668.9306124306125 52.30604575520533 L 669.9470834470836 52.965479677243536 L 670.9635544635547 53.63213411750098 L 671.9800254800257 54.306006495451186 L 672.9964964964968 54.98709348977371 L 674.0129675129677 55.67539103032442 L 675.0294385294387 56.370894290153956 L 676.0459095459097 57.07359767757089 L 677.0623805623808 57.783494828256835 L 678.0788515788518 58.500578597435265 L 679.0953225953227 59.22484105209736 L 680.1117936117938 59.95627346328723 L 681.1282646282648 60.694866298451984 L 682.1447356447356 61.44060921385778 L 683.1612066612068 62.19349104707646 L 684.1776776776778 62.95349980954484 L 685.1941486941488 63.7206226792033 L 686.2106197106199 64.4948459932121 L 687.227090727091 65.27615524075424 L 688.2435617435619 66.06453505592413 L 689.2600327600329 66.85996921070927 L 690.276503776504 67.66244060806565 L 691.292974792975 68.47193127509212 L 692.309445809446 69.28842235630674 L 693.325916825917 70.11189410703105 L 694.342387842388 70.94232588688146 L 695.3588588588591 71.77969615337634 L 696.3753298753301 72.62398245566078 L 697.391800891801 73.47516142835167 L 698.408271908272 74.33320878550916 L 699.4247429247431 75.19809931473742 L 700.4412139412141 76.06980687141828 L 701.4576849576852 76.94830437308326 L 702.4741559741561 77.8335637939262 L 703.4906269906271 78.72555615946118 L 704.5070980070982 79.62425154133109 L 705.5235690235694 80.52961905226968 L 706.5400400400403 81.44162684121969 L 707.5565110565113 82.36024208861642 L 708.5729820729823 83.28543100183376 L 709.5894530894533 84.21715881080357 L 710.6059241059243 85.15538976380688 L 711.6223951223953 86.10008712344703 L 712.6388661388663 87.05121316280233 L 713.6553371553373 88.00872916176894 L 714.6718081718083 88.9725954035928 L 715.6882791882794 89.94277117159962 L 716.7047502047504 90.91921474612164 L 717.7212212212214 91.90188340163249 L 718.7376922376924 92.89073340408694 L 719.7541632541634 93.88572000847523 L 720.7706342706344 94.88679745659411 L 721.7871052871054 95.89391897503822 L 722.8035763035765 96.90703677341776 L 723.8200473200476 97.9261020428055 L 724.8365183365186 98.95106495441598 L 725.8529893529897 99.98187465852604 L 726.8694603694605 101.01847928363355 L 727.8859313859316 102.06082593586558 L 728.9024024024026 103.10886069863454 L 729.9188734188737 104.16252863255039 L 730.9353444353446 105.22177377558987 L 731.9518154518156 106.28653914353 L 732.9682864682868 107.35676673064586 L 733.9847574847577 108.43239751068143 L 735.0012285012286 109.51337143809235 L 736.0176995176997 110.5996274495678 L 737.0341705341707 111.69110346583508 L 738.0506415506417 112.78773639374921 L 739.0671125671128 113.88946212867216 L 740.0835835835837 114.99621555714515 L 741.1000546000548 116.10793055985846 L 742.1165256165259 117.2245400149204 L 743.1329966329969 118.34597580143111 L 744.1494676494679 119.47216880336293 L 745.1659386659388 120.6030489137519 L 746.1824096824099 121.73854503920205 L 747.1988806988809 122.87858510470838 L 748.215351715352 124.02309605879782 L 749.2318227318231 125.17200387899481 L 750.2482937482939 126.32523357761309 L 751.264764764765 127.4827092078751 L 752.281235781236 128.64435387036377 L 753.297706797707 129.8100897198087 L 754.314177814178 130.97983797220942 L 755.330648830649 132.15351891229696 L 756.3471198471199 133.33105190133742 L 757.3635908635911 134.51235538528033 L 758.3800618800619 135.69734690325134 L 759.3965328965331 136.88594309639421 L 760.4130039130041 138.078059717061 L 761.4294749294752 139.27361163835604 L 762.4459459459463 140.4725128640307 L 763.4624169624171 141.67467653873393 L 764.4788879788882 142.88001495861903 L 765.4953589953593 144.08843958230648 L 766.5118300118302 145.2998610422053 L 767.5283010283013 146.51418915619473 L 768.5447720447722 147.73133293966376 L 769.5612430612433 148.95120061791172 L 770.5777140777143 150.17369963891127 L 771.5941850941853 151.39873668643028 L 772.6106561106562 152.6262176935165 L 773.6271271271273 153.85604785634226 L 774.6435981435982 155.08813164841192 L 775.6600691600694 156.32237283512768 L 776.6765401765404 157.55867448871757 L 777.6930111930114 158.79693900352117 L 778.7094822094824 160.03706811163417 L 779.7259532259534 161.2789628989102 L 780.7424242424245 162.5225238213193 L 781.7588952588954 163.7676507216589 L 782.7753662753665 165.01424284661903 L 783.7918372918375 166.26219886419835 L 784.8083083083085 167.5114168814677 L 785.8247793247797 168.7617944626815 L 786.8412503412504 170.01322864773175 L 787.8577213577215 171.26561597094394 L 788.8741923741926 172.51885248021097 L 789.8906633906636 173.77283375646243 L 790.9071344071345 175.02745493346475 L 791.9236054236056 176.28261071795134 L 792.9400764400767 177.5381954100747 L 793.9565474565476 178.7941029241808 L 794.9730184730188 180.05022680989902 L 795.9894894894896 181.30646027354308 L 797.0059605059607 182.56269619982004 L 798.0224315224317 183.81882717384119 L 799.0389025389028 185.07474550342894 L 800.0553735553736 186.33034324171632 L 801.0718445718448 187.58551221003225 L 802.0883155883159 188.8401440210665 L 803.1047866047868 190.09413010230932 L 804.1212576212579 191.34736171975857 L 805.1377286377289 192.59973000188822 L 806.1541996541998 193.85112596387188 L 807.1706706706708 195.1014405320523 L 808.1871416871419 196.35056456865368 L 809.203612703613 197.59838889672463 L 810.220083720084 198.84480432530756 L 811.2365547365549 200.0897016748255 L 812.2530257530259 201.33297180267698 L 813.269496769497 202.5745056290333 L 814.2859677859681 203.81419416282637 L 815.302438802439 205.05192852792194 L 816.3189098189101 206.28759998946504 L 817.3353808353811 207.5210999803928 L 818.3518518518522 208.75232012810073 L 819.368322868323 209.9811522812571 L 820.3847938847941 211.20748853675184 L 821.4012649012651 212.43122126677196 L 822.4177359177362 213.65224314599334 L 823.434206934207 214.87044717887625 L 824.4506779506781 216.08572672705648 L 825.4671489671492 217.29797553681965 L 826.4836199836201 218.50708776664737 L 827.5000910000912 219.7129580148254 L 828.5165620165621 220.9154813471006 L 829.5330330330332 222.11455332437652 L 830.5495040495041 223.31007003043453 L 831.5659750659753 224.50192809966944 L 832.5824460824463 225.69002474482647 L 833.5989170989174 226.87425778472885 L 834.6153881153884 228.05452567198148 L 835.6318591318594 229.2307275206395 L 836.6483301483304 230.40276313382884 L 837.6648011648014 231.57053303130482 L 838.6812721812724 232.73393847693762 L 839.6977431977433 233.892881506109 L 840.7142142142144 235.0472649530094 L 841.7306852306856 236.19699247782128 L 842.7471562471565 237.34196859377334 L 843.7636272636275 238.48209869405537 L 844.7800982800985 239.61728907857776 L 845.7965692965695 240.74744698056236 L 846.8130403130405 241.87248059295155 L 847.8295113295115 242.99229909462093 L 848.8459823459825 244.10681267638262 L 849.8624533624536 245.21593256676329 L 850.8789243789247 246.3195710575469 L 851.8953953953957 247.41764152906293 L 852.9118664118666 248.51005847521046 L 853.9283374283377 249.59673752820248 L 854.9448084448087 250.67759548301518 L 855.9612794612796 251.75255032153106 L 856.9777504777508 252.82152123635953 L 857.9942214942217 253.88442865432208 L 859.0106925106927 254.9411942595884 L 860.0271635271638 255.99174101644883 L 861.0436345436348 257.03599319171053 L 862.0601055601057 258.07387637670263 L 863.0765765765767 259.10531750887816 L 864.0930475930478 260.13024489299704 L 865.1095186095188 261.14858822188046 L 866.1259896259899 262.16027859671954 L 867.142460642461 263.1652485469276 L 868.1589316589319 264.16343204952295 L 869.175402675403 265.15476454802894 L 870.191873691874 266.13918297087855 L 871.208344708345 267.1166257493116 L 872.2248157248159 268.0870328347527 L 873.241286741287 269.0503457156572 L 874.257757757758 270.0065074338138 L 875.274228774229 270.95546260009235 L 876.2906997907 271.89715740962544 L 877.307170807171 272.83153965641316 L 878.323641823642 273.7585587473396 L 879.3401128401132 274.67816571559075 L 880.356583856584 275.59031323346505 L 881.373054873055 276.49495562456366 L 882.3895258895262 277.3920488753547 L 883.405996905997 278.2815506460987 L 884.4224679224683 279.163420281129 L 885.4389389389393 280.0376188184765 L 886.4554099554102 280.9041089988328 L 887.4718809718813 281.7628552738407 L 888.4883519883522 282.6138238137088 L 889.5048230048233 283.4569825141382 L 890.5212940212942 284.2923010025596 L 891.5377650377652 285.1197506436701 L 892.5542360542362 285.9393045442674 L 893.5707070707073 286.75093755737294 L 894.5871780871785 287.55462628564163 L 895.6036491036492 288.3503490840514 L 896.6201201201203 289.1380860618698 L 897.6365911365914 289.91781908389316 L 898.6530621530625 290.68953177095597 L 899.6695331695333 291.4532094997066 L 900.6860041860044 292.20883940164805 L 901.7024752024755 292.9564103614414 L 902.7189462189465 293.69591301447065 L 903.7354172354176 294.42733974366877 L 904.7518882518884 295.15068467560343 L 905.7683592683595 295.865943675824 L 906.7848302848305 296.57311434346934 L 907.8013013013015 297.27219600513837 L 908.8177723177724 297.9631897080245 L 909.8342433342436 298.6460982123168 L 910.8507143507147 299.32092598287045 L 911.8671853671857 299.98767918014886 L 912.8836563836567 300.64636565044316 L 913.9001274001276 301.29699491537144 L 914.9165984165987 301.9395781606636 L 915.9330694330696 302.5741282242373 L 916.9495404495407 303.20065958357014 L 917.9660114660117 303.81918834237507 L 918.9824824824826 304.4297322165861 L 919.9989534989537 305.0323105196612 L 921.0154245154247 305.62694414721074 L 922.0318955318959 306.2136555609596 L 923.0483665483669 306.792468772053 L 924.0648375648377 307.3634093237137 L 925.0813085813088 307.92650427326237 L 926.0977795977799 308.48178217351034 L 927.114250614251 309.0292730535367 L 928.130721630722 309.5690083988602 L 929.1471926471929 310.1010211310188 L 930.1636636636639 310.62534558656836 L 931.180134680135 311.14201749551427 L 932.1966056966058 311.6510739591887 L 933.2130767130769 312.15255342758667 L 934.2295477295479 312.6464956761769 L 935.2460187460189 313.1329417821999 L 936.26248976249 313.6119341004694 L 937.278960778961 314.08351623869277 L 938.2954317954321 314.54773303232525 L 939.3119028119031 315.0046305189746 L 940.3283738283741 315.4542559123728 L 941.344844844845 315.8966575759318 L 942.3613158613161 316.33188499589914 L 943.377786877787 316.7599887541329 L 944.3942578942582 317.18102050051215 L 945.4107289107292 317.59503292500153 L 946.4271999272001 318.00207972938887 L 947.4436709436713 318.4022155987126 L 948.4601419601421 318.7954961724005 L 949.4766129766132 319.18197801513577 L 950.4930839930843 319.5617185874722 L 951.5095550095551 319.93477621621645 L 952.5260260260263 320.3012100645968 L 953.5424970424973 320.6610801022396 L 954.5589680589682 321.0144470749716 L 955.5754390754392 321.3613724744686 L 956.5919100919104 321.7019185077718 L 957.6083811083813 322.03614806668895 L 958.6248521248524 322.3641246971045 L 959.6413231413234 322.68591256821503 L 960.6577941577946 323.00157644171276 L 961.6742651742654 323.31118164093675 L 962.6907361907365 323.614794020011 L 963.7072072072076 323.912479932991 L 964.7236782236783 324.20430620303813 L 965.7401492401495 324.49034009164154 L 966.7566202566205 324.7706492679081 L 967.7730912730915 325.04530177794004 L 968.7895622895625 325.31436601431955 L 969.8060333060336 325.5779106857198 L 970.8225043225046 325.8360047866626 L 971.8389753389755 326.0887175674403 L 972.8554463554466 326.3361185042221 L 973.8719173719176 326.5782772693625 L 974.8883883883886 326.8152637019311 L 975.9048594048598 327.0471477784806 L 976.9213304213308 327.2739995840727 L 977.9378014378018 327.49588928357707 L 978.9542724542728 327.7128870932627 L 979.9707434707439 327.92506325269704 L 980.9872144872147 328.13248799697027 L 982.0036855036858 328.33523152925994 L 983.0201565201568 328.53336399375246 L 984.0366275366277 328.7269554489367 L 985.0530985530987 328.9160758412835 L 986.0695695695698 329.1007949793275 L 987.0860405860409 329.28118250816306 L 988.102511602512 329.4573078843696 L 989.1189826189828 329.6292403513784 L 990.1354536354537 329.7970489152941 L 991.151924651925 329.960802321182 L 992.168395668396 330.12056902983414 L 993.1848666848671 330.27641719502424 L 994.201337701338 330.42841464126184 L 995.217808717809 330.57662884205706 L 996.2342797342801 330.72112689870335 L 997.250750750751 330.8619755195894 L 998.267221767222 330.9992410000468 L 999.283692783693 331.132989202742 L 1000.300163800164 331.26328553862044 L 1001.316634816635 331.3901949484077 L 1002.3331058331061 331.5137818846765 L 1003.3495768495769 331.63411029448196 L 1004.3660478660482 331.7512436025729 L 1005.3825188825192 331.86524469518173 L 1006.3989898989902 331.9761759043977 L 1007.4154609154613 332.084098993126 L 1008.4319319319321 332.1890751406365 L 1009.4484029484032 332.2911649287024 L 1010.4648739648742 332.39042832833303 L 1011.4813449813453 332.48692468709834 L 1012.4978159978164 332.58071271704875 L 1013.5142870142872 332.67185048322784 L 1014.5307580307583 332.7603953927786 L 1015.5472290472294 332.8464041846411 L 1016.5637000637003 332.92993291984004 L 1017.5801710801712 333.0110369723604 L 1018.5966420966424 333.08977102060726 L 1019.6131131131132 333.1661890394473 L 1020.6295841295845 333.240344292828 L 1021.6460551460555 333.3122893269694 L 1022.6625261625262 333.3820759641248 L 1023.6789971789975 333.44975529690396 L 1024.6954681954685 333.5153776831539 L 1025.7119392119394 333.57899274138987 L 1026.7284102284104 333.64064934677197 L 1027.7448812448815 333.7003956276172 L 1028.7613522613528 333.7582789624427 L 1029.7778232778235 333.8143459775301 L 1030.7942942942946 333.8686425450033 L 1031.8107653107656 333.9212137814116 L 1032.8272363272365 333.97210404680817 L 1033.8437073437076 334.0213569443157 L 1034.8601783601787 334.06901532016843 L 1035.8766493766495 334.11512126422184 L 1036.8931203931206 334.1597161109182 L 1037.9095914095917 334.20284044069984 L 1038.9260624260628 334.24453408185616 L 1039.9425334425337 334.28483611279717 L 1040.9590044590045 334.3237848647388 L 1041.9754754754758 334.3614179247913 L 1042.9919464919467 334.3977721394376 L 1044.0084175084176 334.4328836183907 L 1045.0248885248886 334.4667877388171 L 1046.0413595413597 334.49951914991635 L 1047.057830557831 334.531111777842 L 1048.074301574302 334.56159883095376 L 1049.0907725907728 334.5910128053875 L 1050.1072436072436 334.61938549093117 L 1051.123714623715 334.64674797719385 L 1052.1401856401858 334.6731306600561 L 1053.1566566566569 334.6985632483882 L 1054.173127673128 334.7230747710251 L 1055.1895986895993 334.74669358398404 L 1056.2060697060701 334.7694473779143 L 1057.222540722541 334.79136318576474 L 1058.2390117390123 334.81246739065887 L 1059.2554827554832 334.8327857339633 L 1060.271953771954 334.8523433235387 L 1061.2884247884253 334.8711646421612 L 1062.3048958048962 334.8892735561014 L 1063.321366821367 334.90669332385033 L 1064.3378378378382 334.9234466049801 L 1065.3543088543092 334.9395554691278 L 1066.3707798707803 334.9550414050916 L 1067.3872508872512 334.9699253300278 L 1068.403721903722 334.9842275987376 L 1069.4201929201934 334.9979680130334 L 1070.436663936664 335.0111658311738 L 1071.4531349531353 335.0238397773566 L 1072.4696059696064 335.03600805126086 L 1073.4860769860773 335.04768833762625 L 1074.5025480025483 335.0588978158624 L 1075.5190190190192 335.06965316967677 L 1076.5354900354903 335.0799705967132 L 1077.5519610519614 335.0898658181919 L 1078.5684320684322 335.099354088542 L 1079.5849030849033 335.1084502050185 L 1080.6013741013744 335.1171685172963 L 1081.6178451178453 335.12552293703175 L 1082.6343161343164 335.1335269473861 L 1083.6507871507874 335.14119361250215 L 1084.6672581672583 335.1485355869284 L 1085.6837291837294 335.15556512498284 L 1086.7002002002005 335.1622940900506 L 1087.7166712166713 335.16873396380925 L 1088.7331422331424 335.1748958553763 L 1089.7496132496135 335.1807905103724 L 1090.7660842660844 335.18642831989575 L 1091.7825552825557 335.19181932940296 L 1092.7990262990265 335.19697324749035 L 1093.8154973154979 335.201899454573 L 1094.8319683319685 335.206607011456 L 1095.8484393484396 335.2111046677946 L 1096.8649103649109 335.21540087043974 L 1097.8813813813815 335.2195037716653 L 1098.8978523978528 335.2234212372741 L 1099.9143234143237 335.22716085458 L 1100.9307944307948 335.23072994026273 L 1101.9472654472659 335.2341355480946 L 1102.9637364637367 335.2373844765353 L 1103.9802074802078 335.24048327619374 L 1104.996678496679 335.2434382571558 L 1106.0131495131498 335.2462554961753 L 1107.0296205296208 335.24894084372806 L 1108.046091546092 335.2514999309275 L 1109.0625625625628 335.2539381763011 L 1110.0790335790339 335.2562607924274 L 1111.095504595505 335.25847279243254 L 1112.1119756119758 335.26057899634674 L 1113.1284466284471 335.2625840373203 L 1114.144917644918 335.26449236769963 L 1115.161388661389 335.26630826496256 L 1116.17785967786 335.26803583751496 L 1117.194330694331 335.26967903034824 L 1118.210801710802 335.2712416305582 L 1119.227272727273 335.2727272727273" stroke-miterlimit="10"/></g></g></g><g clip-path="url(#gsTTPHNToecN)"><g/></g><g><g fill="#444444"><path fill="none" stroke="black" paint-order="fill stroke markers" d=" M 53 351 L 1170 351" stroke-miterlimit="10"/><path fill="none" stroke="black" paint-order="fill stroke markers" d=" M 104 357 L 104 349" stroke-miterlimit="10"/><path fill="none" stroke="black" paint-order="fill stroke markers" d=" M 577 357 L 577 349" stroke-miterlimit="10"/><path fill="none" stroke="black" paint-order="fill stroke markers" d=" M 1050 357 L 1050 349" stroke-miterlimit="10"/><path fill="none" stroke="black" paint-order="fill stroke markers" d=" M 104 355 L 104 351" stroke-miterlimit="10"/><path fill="none" stroke="black" paint-order="fill stroke markers" d=" M 104 355 L 104 351" stroke-miterlimit="10"/><path fill="none" stroke="black" paint-order="fill stroke markers" d=" M 104 355 L 104 351" stroke-miterlimit="10"/><path fill="none" stroke="black" paint-order="fill stroke markers" d=" M 246 355 L 246 351" stroke-miterlimit="10"/><path fill="none" stroke="black" paint-order="fill stroke markers" d=" M 330 355 L 330 351" stroke-miterlimit="10"/><path fill="none" stroke="black" paint-order="fill stroke markers" d=" M 389 355 L 389 351" stroke-miterlimit="10"/><path fill="none" stroke="black" paint-order="fill stroke markers" d=" M 434 355 L 434 351" stroke-miterlimit="10"/><path fill="none" stroke="black" paint-order="fill stroke markers" d=" M 472 355 L 472 351" stroke-miterlimit="10"/><path fill="none" stroke="black" paint-order="fill stroke markers" d=" M 504 355 L 504 351" stroke-miterlimit="10"/><path fill="none" stroke="black" paint-order="fill stroke markers" d=" M 531 355 L 531 351" stroke-miterlimit="10"/><path fill="none" stroke="black" paint-order="fill stroke markers" d=" M 555 355 L 555 351" stroke-miterlimit="10"/><path fill="none" stroke="black" paint-order="fill stroke markers" d=" M 577 355 L 577 351" stroke-miterlimit="10"/><path fill="none" stroke="black" paint-order="fill stroke markers" d=" M 577 355 L 577 351" stroke-miterlimit="10"/><path fill="none" stroke="black" paint-order="fill stroke markers" d=" M 719 355 L 719 351" stroke-miterlimit="10"/><path fill="none" stroke="black" paint-order="fill stroke markers" d=" M 803 355 L 803 351" stroke-miterlimit="10"/><path fill="none" stroke="black" paint-order="fill stroke markers" d=" M 862 355 L 862 351" stroke-miterlimit="10"/><path fill="none" stroke="black" paint-order="fill stroke markers" d=" M 908 355 L 908 351" stroke-miterlimit="10"/><path fill="none" stroke="black" paint-order="fill stroke markers" d=" M 945 355 L 945 351" stroke-miterlimit="10"/><path fill="none" stroke="black" paint-order="fill stroke markers" d=" M 977 355 L 977 351" stroke-miterlimit="10"/><path fill="none" stroke="black" paint-order="fill stroke markers" d=" M 1004 355 L 1004 351" stroke-miterlimit="10"/><path fill="none" stroke="black" paint-order="fill stroke markers" d=" M 1028 355 L 1028 351" stroke-miterlimit="10"/><path fill="none" stroke="black" paint-order="fill stroke markers" d=" M 1050 355 L 1050 351" stroke-miterlimit="10"/><path fill="" stroke="black" paint-order="fill stroke markers" d=" M 1050 355 L 1050 351" stroke-miterlimit="10"/><g transform="translate(104,362) rotate(0,0,0)"><text fill="" stroke="none" font-family="helvetica" font-size="8pt" font-style="normal" font-weight="normal" text-decoration="normal" x="0" y="0" text-anchor="middle" dominant-baseline="hanging">10^-1</text><g transform="rotate(0,0,0) translate(-104,-362) translate(577,362) rotate(0,0,0)"><text fill="" stroke="none" font-family="helvetica" font-size="8pt" font-style="normal" font-weight="normal" text-decoration="normal" x="0" y="0" text-anchor="middle" dominant-baseline="hanging">10^0</text><g transform="rotate(0,0,0) translate(-577,-362) translate(1050,362) rotate(0,0,0)"><text fill="" stroke="none" font-family="helvetica" font-size="8pt" font-style="normal" font-weight="normal" text-decoration="normal" x="0" y="0" text-anchor="middle" dominant-baseline="hanging">10^1</text><g transform="rotate(0,0,0) translate(-1050,-362) translate(612,382) rotate(0,0,0)"><text fill="" stroke="none" font-family="helvetica" font-size="10pt" font-style="italic" font-weight="normal" text-decoration="normal" x="0" y="0" text-anchor="middle" dominant-baseline="hanging">Energy /MeV</text><g transform="rotate(0,0,0) translate(-612,-382)"/></g></g></g></g></g><g fill="#444444"><path fill="none" stroke="black" paint-order="fill stroke markers" d=" M 53 351 L 53 5" stroke-miterlimit="10"/><path fill="none" stroke="black" paint-order="fill stroke markers" d=" M 47 335 L 55 335" stroke-miterlimit="10"/><path fill="none" stroke="black" paint-order="fill stroke markers" d=" M 47 272 L 55 272" stroke-miterlimit="10"/><path fill="none" stroke="black" paint-order="fill stroke markers" d=" M 47 208 L 55 208" stroke-miterlimit="10"/><path fill="none" stroke="black" paint-order="fill stroke markers" d=" M 47 144 L 55 144" stroke-miterlimit="10"/><path fill="none" stroke="black" paint-order="fill stroke markers" d=" M 47 80 L 55 80" stroke-miterlimit="10"/><path fill="none" stroke="black" paint-order="fill stroke markers" d=" M 47 16 L 55 16" stroke-miterlimit="10"/><path fill="none" stroke="black" paint-order="fill stroke markers" d=" M 49 348 L 53 348" stroke-miterlimit="10"/><path fill="none" stroke="black" paint-order="fill stroke markers" d=" M 49 335 L 53 335" stroke-miterlimit="10"/><path fill="none" stroke="black" paint-order="fill stroke markers" d=" M 49 323 L 53 323" stroke-miterlimit="10"/><path fill="none" stroke="black" paint-order="fill stroke markers" d=" M 49 310 L 53 310" stroke-miterlimit="10"/><path fill="none" stroke="black" paint-order="fill stroke markers" d=" M 49 297 L 53 297" stroke-miterlimit="10"/><path fill="none" stroke="black" paint-order="fill stroke markers" d=" M 49 284 L 53 284" stroke-miterlimit="10"/><path fill="none" stroke="black" paint-order="fill stroke markers" d=" M 49 272 L 53 272" stroke-miterlimit="10"/><path fill="none" stroke="black" paint-order="fill stroke markers" d=" M 49 259 L 53 259" stroke-miterlimit="10"/><path fill="none" stroke="black" paint-order="fill stroke markers" d=" M 49 246 L 53 246" stroke-miterlimit="10"/><path fill="none" stroke="black" paint-order="fill stroke markers" d=" M 49 233 L 53 233" stroke-miterlimit="10"/><path fill="none" stroke="black" paint-order="fill stroke markers" d=" M 49 221 L 53 221" stroke-miterlimit="10"/><path fill="none" stroke="black" paint-order="fill stroke markers" d=" M 49 208 L 53 208" stroke-miterlimit="10"/><path fill="none" stroke="black" paint-order="fill stroke markers" d=" M 49 195 L 53 195" stroke-miterlimit="10"/><path fill="none" stroke="black" paint-order="fill stroke markers" d=" M 49 182 L 53 182" stroke-miterlimit="10"/><path fill="none" stroke="black" paint-order="fill stroke markers" d=" M 49 169 L 53 169" stroke-miterlimit="10"/><path fill="none" stroke="black" paint-order="fill stroke markers" d=" M 49 157 L 53 157" stroke-miterlimit="10"/><path fill="none" stroke="black" paint-order="fill stroke markers" d=" M 49 144 L 53 144" stroke-miterlimit="10"/><path fill="none" stroke="black" paint-order="fill stroke markers" d=" M 49 131 L 53 131" stroke-miterlimit="10"/><path fill="none" stroke="black" paint-order="fill stroke markers" d=" M 49 118 L 53 118" stroke-miterlimit="10"/><path fill="none" stroke="black" paint-order="fill stroke markers" d=" M 49 106 L 53 106" stroke-miterlimit="10"/><path fill="none" stroke="black" paint-order="fill stroke markers" d=" M 49 93 L 53 93" stroke-miterlimit="10"/><path fill="none" stroke="black" paint-order="fill stroke markers" d=" M 49 80 L 53 80" stroke-miterlimit="10"/><path fill="none" stroke="black" paint-order="fill stroke markers" d=" M 49 67 L 53 67" stroke-miterlimit="10"/><path fill="none" stroke="black" paint-order="fill stroke markers" d=" M 49 55 L 53 55" stroke-miterlimit="10"/><path fill="none" stroke="black" paint-order="fill stroke markers" d=" M 49 42 L 53 42" stroke-miterlimit="10"/><path fill="none" stroke="black" paint-order="fill stroke markers" d=" M 49 29 L 53 29" stroke-miterlimit="10"/><path fill="" stroke="black" paint-order="fill stroke markers" d=" M 49 16 L 53 16" stroke-miterlimit="10"/><g transform="translate(42,335) rotate(0,0,0)"><text fill="" stroke="none" font-family="helvetica" font-size="8pt" font-style="normal" font-weight="normal" text-decoration="normal" x="0" y="0" text-anchor="end" dominant-baseline="central">0</text><g transform="rotate(0,0,0) translate(-42,-335) translate(42,272) rotate(0,0,0)"><text fill="" stroke="none" font-family="helvetica" font-size="8pt" font-style="normal" font-weight="normal" text-decoration="normal" x="0" y="0" text-anchor="end" dominant-baseline="central">0.2</text><g transform="rotate(0,0,0) translate(-42,-272) translate(42,208) rotate(0,0,0)"><text fill="" stroke="none" font-family="helvetica" font-size="8pt" font-style="normal" font-weight="normal" text-decoration="normal" x="0" y="0" text-anchor="end" dominant-baseline="central">0.4</text><g transform="rotate(0,0,0) translate(-42,-208) translate(42,144) rotate(0,0,0)"><text fill="" stroke="none" font-family="helvetica" font-size="8pt" font-style="normal" font-weight="normal" text-decoration="normal" x="0" y="0" text-anchor="end" dominant-baseline="central">0.6</text><g transform="rotate(0,0,0) translate(-42,-144) translate(42,80) rotate(0,0,0)"><text fill="" stroke="none" font-family="helvetica" font-size="8pt" font-style="normal" font-weight="normal" text-decoration="normal" x="0" y="0" text-anchor="end" dominant-baseline="central">0.8</text><g transform="rotate(0,0,0) translate(-42,-80) translate(42,16) rotate(0,0,0)"><text fill="" stroke="none" font-family="helvetica" font-size="8pt" font-style="normal" font-weight="normal" text-decoration="normal" x="0" y="0" text-anchor="end" dominant-baseline="central">1</text><g transform="rotate(0,0,0) translate(-42,-16) translate(18,178) rotate(-90,0,0)"><text fill="" stroke="none" font-family="helvetica" font-size="10pt" font-style="italic" font-weight="normal" text-decoration="normal" x="0" y="0" text-anchor="middle" dominant-baseline="alphabetic">f(x)</text><g transform="rotate(90,0,0) translate(-18,-178)"/></g></g></g></g></g></g></g></g></g></g></g></svg>